<svg xmlns="http://www.w3.org/2000/svg" width="16" height="16" viewBox="0 0 16 16">
    <g fill="#3583E3" fill-rule="nonzero">
        <path d="M6.797 6.797a.714.714 0 0 1 .508-.21c.193 0 .374.074.509.21l1.377 1.376a.254.254 0 0 0 .359 0l1.377-1.376a.254.254 0 0 0 0-.36L9.55 5.061c-.6-.6-1.397-.93-2.245-.93-.847 0-1.645.33-2.245.93L.93 9.19c-.6.6-.93 1.397-.93 2.245 0 .848.33 1.645.93 2.245l1.377 1.376c.6.6 1.396.93 2.244.93.848 0 1.646-.33 2.246-.93l2.327-2.327a.254.254 0 0 0-.196-.434 3.646 3.646 0 0 1-2.085-.489.253.253 0 0 0-.309.04l-1.473 1.474a.715.715 0 0 1-.51.21.715.715 0 0 1-.508-.21l-1.377-1.377a.715.715 0 0 1 0-1.017l4.13-4.13z"/>
        <path d="M15.057 2.307L13.68.93C13.081.33 12.284 0 11.436 0c-.848 0-1.645.33-2.245.93L6.863 3.258a.254.254 0 0 0 .197.433 3.62 3.62 0 0 1 2.084.488.253.253 0 0 0 .308-.038l1.475-1.475a.714.714 0 0 1 .509-.21c.192 0 .373.074.508.21l1.377 1.377c.28.28.28.737 0 1.018L9.19 9.19a.717.717 0 0 1-1.018 0L6.797 7.814a.254.254 0 0 0-.36 0L5.061 9.191c-.1.099-.1.26 0 .36l1.376 1.376c.6.6 1.397.93 2.245.93.848 0 1.645-.33 2.245-.93l4.13-4.13c.6-.6.93-1.397.93-2.245 0-.849-.33-1.646-.93-2.245z"/>
    </g>
</svg>
