<svg width="32" height="32" viewBox="0 0 32 32" fill="none" xmlns="http://www.w3.org/2000/svg">
<path fill-rule="evenodd" clip-rule="evenodd" d="M19.9374 10.8825C19.9374 11.5138 20.4503 12.0255 21.083 12.0255C21.7157 12.0255 22.2285 11.5138 22.2285 10.8825C22.2285 10.2512 21.7157 9.73945 21.083 9.73945C20.4503 9.73945 19.9374 10.2512 19.9374 10.8825ZM12.8049 15.9671C12.8049 14.2136 14.2296 12.792 15.987 12.792C17.7445 12.792 19.1692 14.2136 19.1692 15.9671C19.1692 17.7207 17.7445 19.1422 15.987 19.1422C14.2296 19.1422 12.8049 17.7207 12.8049 15.9671ZM15.987 20.8585C13.2796 20.8585 11.0848 18.6685 11.0848 15.9671C11.0848 13.2657 13.2796 11.0758 15.987 11.0758C18.6945 11.0758 20.8893 13.2657 20.8893 15.9671C20.8893 18.6685 18.6945 20.8585 15.987 20.8585ZM23.7368 8.26319C23.3527 7.87904 22.9869 7.64113 22.4745 7.44201C22.0877 7.29164 21.5064 7.11283 20.436 7.06399C19.2784 7.01118 18.9312 7 16 7C13.0687 7 12.7215 7.01118 11.5639 7.06399C10.4936 7.11283 9.9123 7.29164 9.52547 7.44201C9.01303 7.64113 8.64735 7.87904 8.26319 8.26319C7.87904 8.64735 7.64113 9.01307 7.44197 9.52547C7.29164 9.9123 7.11283 10.4936 7.06399 11.5639C7.01118 12.7215 7 13.0687 7 16C7 18.9313 7.01118 19.2784 7.06399 20.4361C7.11283 21.5064 7.29164 22.0877 7.44197 22.4745C7.64113 22.9869 7.87904 23.3527 8.26319 23.7368C8.64735 24.121 9.01303 24.3589 9.52547 24.558C9.9123 24.7083 10.4936 24.8872 11.5639 24.936C12.7214 24.9888 13.0685 25 16 25C18.9314 25 19.2786 24.9888 20.436 24.936C21.5064 24.8872 22.0877 24.7083 22.4745 24.558C22.9869 24.3589 23.3527 24.121 23.7368 23.7368C24.1209 23.3527 24.3589 22.9869 24.558 22.4745C24.7083 22.0877 24.8872 21.5064 24.936 20.4361C24.9888 19.2784 25 18.9313 25 16C25 13.0687 24.9888 12.7215 24.936 11.5639C24.8872 10.4936 24.7083 9.9123 24.558 9.52547C24.3589 9.01307 24.1209 8.64735 23.7368 8.26319Z" fill="#307FE2"/>
</svg>
