<svg xmlns="http://www.w3.org/2000/svg" viewBox="0 0 65.12 64"><defs><style>.cls-1{fill:#307fe2}.cls-2{fill:#f9423a}</style></defs><title>logo-part1</title><g id="Layer_2" data-name="Layer 2"><g id="Layer_1-2" data-name="Layer 1"><path class="cls-1" d="M59.84 40.55a5 5 0 0 0-1 .1l-1.3-2.25L56 35.74a5.09 5.09 0 0 0 0-7.18l1.52-2.62 1.34-2.31a5.4 5.4 0 0 0 1.15.12 5.11 5.11 0 1 0 0-10.21 4.83 4.83 0 0 0-1.15.13l-1.34-2.31L56 8.71a5.13 5.13 0 1 0-3.65 1.51 5.05 5.05 0 0 0 1.87-.35l1.47 2.54 1.24 2.15a5.09 5.09 0 0 0 0 8.16l-1.25 2.16-1.46 2.51a5.28 5.28 0 0 0-1.89-.39 5.13 5.13 0 0 0-5 4.08h-5.79a5.12 5.12 0 0 0-6.2-3.94L34 24.87l-1.4-2.41a5.09 5.09 0 0 0 .16-7.93L34 12.41l1.34-2.32a5.67 5.67 0 0 0 1.17.13 5.12 5.12 0 1 0-3.1-1l-1.25 2.17-1.26 2.14a5.22 5.22 0 0 0-1.44-.2 5.12 5.12 0 0 0-5.05 4.25H18.7a5.13 5.13 0 1 0-8.5 4.64l-1.53 2.65-1.49 2.59a5.05 5.05 0 0 0-2-.43 5.13 5.13 0 1 0 3.73 1.67l1.6-2.76L12 23.29a5 5 0 0 0 1.6.26 5.12 5.12 0 0 0 5-3.85h5.88a5.13 5.13 0 0 0 5 3.84 5.07 5.07 0 0 0 1.24-.15l1.47 2.53 1.24 2.14a5.1 5.1 0 0 0 0 8.14l-1.26 2.2-1.36 2.35a5.33 5.33 0 0 0-1.44-.2 5.12 5.12 0 0 0-5 4.08h-5.8a5.1 5.1 0 1 0 0 2.13h5.8a5.13 5.13 0 0 0 5 4 5 5 0 0 0 1.4-.2l2.52 4.35a5.13 5.13 0 1 0 3.23-1.14 5 5 0 0 0-1.34.18l-2.53-4.38a5.1 5.1 0 0 0 0-7.82L34 39.47l1.36-2.35a4.83 4.83 0 0 0 1.15.13 5.14 5.14 0 0 0 5-4h5.8a5.12 5.12 0 0 0 5 4 5.21 5.21 0 0 0 1.86-.34l1.48 2.55 1.18 2a5.11 5.11 0 0 0 0 8.32l-1.21 2.1-1.32 2.26a5.21 5.21 0 0 0-2-.41 5.11 5.11 0 1 0 3.77 1.64L57.51 53l1.34-2.32a5.36 5.36 0 0 0 1 .1 5.11 5.11 0 1 0 0-10.22zM54.45 7.22a3 3 0 1 1 .87-2.11 3 3 0 0 1-.87 2.11zm3.43 9.31A3 3 0 0 1 63 18.64a3 3 0 0 1-.88 2.1 3 3 0 0 1-4.23 0 3 3 0 0 1 0-4.21zM34.4 3a3 3 0 0 1 4.23 0 3 3 0 0 1 0 4.22A3 3 0 0 1 34.4 3zM7.24 34.25a3 3 0 1 1 .88-2.11 3 3 0 0 1-.88 2.11zm8.52-13.7a3 3 0 1 1 .87-2.11 3 3 0 0 1-.87 2.11zm15.81 0a3 3 0 1 1 0-4.22 3 3 0 0 1 0 4.22zm-15.9 27.22a3 3 0 0 1-2.12.87 3 3 0 0 1-2.11-.87 3 3 0 0 1 2.11-5.1 3 3 0 0 1 2.12.88 3 3 0 0 1 0 4.22zm18.73 9a3 3 0 0 1 4.23 0 3 3 0 0 1 0 4.22 3 3 0 0 1-4.23-4.22zm-2.92-9a3 3 0 0 1-4.23 0 3 3 0 1 1 4.23 0zm7.15-13.52a3 3 0 1 1 0-4.22 3 3 0 0 1 0 4.22zm15.82 0a3 3 0 1 1 .87-2.11 3 3 0 0 1-.87 2.11zm0 26.75a3 3 0 1 1 .87-2.11 3 3 0 0 1-.87 2.11zM62 47.77a3 3 0 0 1-4.23 0 3 3 0 1 1 4.23 0z"/><path class="cls-2" d="M52.25 2.74A2.29 2.29 0 1 1 50 5a2.29 2.29 0 0 1 2.25-2.26z"/></g></g></svg>