<svg xmlns="http://www.w3.org/2000/svg" viewBox="0 0 65 64"><defs><style>.cls-1{fill:#fff;}</style></defs><title>logo-part1-white</title><g id="Layer_2" data-name="Layer 2"><g id="Layer_1-2" data-name="Layer 1"><g id="Layer_1-2-2" data-name="Layer 1-2"><g id="Layer_2-2" data-name="Layer 2-2"><g id="Layer_1-2-2-2" data-name="Layer 1-2-2"><path class="cls-1" d="M59.51,40.53a4.19,4.19,0,0,0-1,.1l-1.29-2.25-1.54-2.66a5.09,5.09,0,0,0,0-7.16L57.2,26l1.33-2.31a5.52,5.52,0,0,0,1.14.12,5.1,5.1,0,0,0,.49-10.19h-.51a4.92,4.92,0,0,0-1.14.13L57.2,11.38,55.68,8.74a5.14,5.14,0,0,0,0-7.25,5.08,5.08,0,0,0-7.21,0,5.12,5.12,0,0,0,3.6,8.73,5.2,5.2,0,0,0,1.86-.35l1.46,2.54,1.23,2.15a5.09,5.09,0,0,0-1,7.1h0a4.65,4.65,0,0,0,1,1l-1.24,2.16-1.45,2.51A5,5,0,0,0,47.38,30,4.46,4.46,0,0,0,47.06,31H41.31a5.09,5.09,0,0,0-6-4h-.16L33.8,24.87l-1.39-2.41a5.1,5.1,0,0,0,.92-7.12,5.68,5.68,0,0,0-.76-.79l1.23-2.12,1.34-2.32a5,5,0,0,0,1.16.13,5.09,5.09,0,1,0-3.08-1L32,11.41l-1.26,2.14a5.31,5.31,0,0,0-1.43-.2,5.09,5.09,0,0,0-5,4.24H18.6a5.1,5.1,0,1,0-8.45,4.64L8.63,24.87,7.15,27.46A5.12,5.12,0,1,0,9.77,34.2a5,5,0,0,0,.43-2A5.16,5.16,0,0,0,8.87,28.7L10.46,26l1.47-2.67a4.78,4.78,0,0,0,1.59.26,5.09,5.09,0,0,0,5-3.84h5.85a5.14,5.14,0,0,0,6.2,3.68L32,26l1.23,2.14a5.08,5.08,0,0,0-1,7.11h0a5,5,0,0,0,1,1L32,38.42l-1.36,2.35a5.25,5.25,0,0,0-1.43-.2,5.09,5.09,0,0,0-5,4.07H18.47a5.09,5.09,0,1,0,0,2.13h5.77a5.08,5.08,0,0,0,6.06,3.87l.3-.08,2.51,4.35a5.13,5.13,0,0,0-.76,7.19,5.07,5.07,0,0,0,7.16.76,5.11,5.11,0,0,0-3.19-9.08A4.59,4.59,0,0,0,35,54l-2.52-4.38a5.1,5.1,0,0,0,.64-7.16h0a5.43,5.43,0,0,0-.63-.64l1.33-2.32,1.36-2.35a4.86,4.86,0,0,0,1.14.13,5.11,5.11,0,0,0,5-4H47a5.26,5.26,0,0,0,6.83,3.7l1.47,2.55,1.17,2a5.11,5.11,0,0,0-1.18,7.11h0a4.77,4.77,0,0,0,1.18,1.19l-1.2,2.1L54,54.15a5.07,5.07,0,1,0,2.73,6.62,5.11,5.11,0,0,0-1-5.4l1.43-2.45,1.33-2.32a5.56,5.56,0,0,0,1,.1,5.1,5.1,0,0,0,0-10.2ZM54.15,7.25a3,3,0,1,1,0-4.24,3,3,0,0,1,0,4.24Zm3.41,9.29a3,3,0,0,1,4.21,0A3,3,0,0,1,58,21.19a3.57,3.57,0,0,1-.43-.44,3,3,0,0,1,0-4.21ZM34.21,3a3,3,0,0,1,4.21,4.21,3,3,0,0,1-4.2-.38A3,3,0,0,1,34.21,3Zm-27,31.24a3,3,0,0,1-4.22,0A3,3,0,0,1,3,30a3,3,0,0,1,4.22,4.24Zm8.47-13.68a3,3,0,1,1,0-4.24,2.94,2.94,0,0,1,.88,2.13A3,3,0,0,1,15.68,20.56Zm15.72,0a3,3,0,0,1-4.22,0,3,3,0,0,1,0-4.24,3,3,0,0,1,4.22,0h0a3,3,0,0,1,.12,4.2A.11.11,0,0,1,31.4,20.56ZM15.59,47.74a3,3,0,1,1,.85-2.11,3,3,0,0,1-.85,2.11Zm18.62,9a3,3,0,0,1,4.2-.38,3,3,0,0,1,.39,4.22,3,3,0,0,1-4.2.38,4.68,4.68,0,0,1-.39-.38A3,3,0,0,1,34.21,56.72Zm-2.9-9a3,3,0,1,1,0-4.26,3,3,0,0,1,0,4.26Zm7.11-13.5a3,3,0,1,1,0-4.24h0A3,3,0,0,1,38.42,34.24Zm15.73,0a3,3,0,1,1,0-4.24,3,3,0,0,1,0,4.24Zm0,26.7a3,3,0,0,1-4.22,0,3,3,0,0,1,0-4.23,3,3,0,0,1,4.22,0,3,3,0,0,1,0,4.19Zm7.49-13.2a3,3,0,0,1-4.21,0,3,3,0,0,1,0-4.24,3,3,0,0,1,4.2,0,3,3,0,0,1,0,4.24Z"/><path class="cls-1" d="M52,2.78A2.29,2.29,0,1,1,49.71,5.1V5A2.27,2.27,0,0,1,52,2.78Z"/></g></g></g></g></g></svg>