<svg width="189" height="64" viewBox="0 0 189 64" fill="none" xmlns="http://www.w3.org/2000/svg">
<path fill-rule="evenodd" clip-rule="evenodd" d="M55.9772 8.7058L57.5067 11.3481H57.5086L58.8462 13.6557C59.2166 13.5695 59.6004 13.5255 59.9976 13.5255C62.8282 13.5255 65.1234 15.8139 65.1234 18.6361C65.1234 21.4583 62.8282 23.7448 59.9976 23.7448C59.6042 23.7448 59.2185 23.7008 58.85 23.6166L57.5086 25.9337V25.9375L55.9906 28.5607C56.9003 29.4811 57.4587 30.7458 57.4587 32.1406C57.4587 33.547 56.8907 34.8193 55.9676 35.7435L57.5067 38.4012H57.5086L58.8116 40.6494C59.1436 40.5805 59.4891 40.546 59.8441 40.546C62.6728 40.546 64.968 42.8344 64.968 45.6566C64.968 48.4788 62.6728 50.7653 59.8441 50.7653C59.5025 50.7653 59.1724 50.7328 58.8519 50.6696L57.5086 52.9886V52.9924L56.1 55.4243C56.9444 56.3351 57.4587 57.552 57.4587 58.8894C57.4587 61.7116 55.1654 64 52.3348 64C49.5042 64 47.209 61.7116 47.209 58.8894C47.209 56.0672 49.5042 53.7788 52.3348 53.7788C53.0525 53.7788 53.7338 53.9262 54.3537 54.1921L55.6663 51.9267L55.6682 51.9286L56.883 49.8277C55.5723 48.9036 54.7183 47.3786 54.7183 45.6566C54.7183 43.948 55.5588 42.4364 56.8484 41.5085L55.6663 39.465V39.4612L54.1867 36.9068C53.6129 37.1288 52.9873 37.2512 52.3348 37.2512C49.8803 37.2512 47.8288 35.5311 47.326 33.2332H44.8389H41.5266C41.0238 35.5311 38.9743 37.2512 36.5198 37.2512C36.1225 37.2512 35.7368 37.2053 35.3664 37.1211L34.0097 39.465L32.6817 41.7591C33.789 42.6966 34.4894 44.0953 34.4894 45.6566C34.4894 47.2332 33.7736 48.6415 32.6471 49.5809L35.1822 53.9568C35.6082 53.8401 36.0573 53.7788 36.5198 53.7788C39.3504 53.7788 41.6456 56.0672 41.6456 58.8894C41.6456 61.7116 39.3504 64 36.5198 64C33.6892 64 31.394 61.7116 31.394 58.8894C31.394 57.2879 32.1328 55.8606 33.2881 54.923L30.7684 50.572C30.3231 50.6983 29.851 50.7653 29.3655 50.7653C26.9129 50.7653 24.8653 49.049 24.3606 46.7568H21.3381V46.7606H18.5554C18.0488 49.0509 16.0012 50.7653 13.5505 50.7653C10.7199 50.7653 8.4247 48.4788 8.4247 45.6566C8.4247 42.8344 10.7199 40.546 13.5505 40.546C16.0299 40.546 18.0968 42.3006 18.5727 44.633H21.3381V44.6368L24.3414 44.6349C24.8154 42.3025 26.8842 40.546 29.3655 40.546C29.8645 40.546 30.3481 40.6168 30.8067 40.7508L32.1673 38.4012L33.4301 36.218C32.1942 35.2862 31.394 33.8072 31.394 32.1406C31.394 30.4856 32.1846 29.0142 33.4071 28.0805L32.1673 25.9375V25.9337L30.6973 23.3966C30.302 23.4961 29.8875 23.5477 29.4595 23.5477C27.0684 23.5477 25.0591 21.9156 24.493 19.7076H21.3381V19.7019L18.6111 19.7038C18.0469 21.9137 16.0376 23.5477 13.6445 23.5477C13.0842 23.5477 12.5468 23.4578 12.0421 23.2933L10.5107 25.9375H10.5088L8.91022 28.6966C9.74309 29.6054 10.2497 30.8128 10.2497 32.1406C10.2497 34.9628 7.95644 37.2512 5.12582 37.2512C2.2952 37.2512 0 34.9628 0 32.1406C0 29.3184 2.2952 27.03 5.12582 27.03C5.85315 27.03 6.54785 27.1831 7.17538 27.4567L8.66841 24.8775V24.8737L10.2018 22.2237C9.16737 21.2881 8.51872 19.9391 8.51872 18.4371C8.51872 15.6149 10.8139 13.3285 13.6445 13.3285C16.1835 13.3285 18.2906 15.1672 18.6974 17.5819H21.3381V17.578H24.4067C24.8173 15.1653 26.9225 13.3285 29.4595 13.3285C29.9604 13.3285 30.446 13.3993 30.9027 13.5332L32.1673 11.352V11.3462L33.4205 9.18031C32.1904 8.24658 31.394 6.77138 31.394 5.11058C31.394 2.28838 33.6892 0 36.5198 0C39.3504 0 41.6456 2.28838 41.6456 5.11058C41.6456 7.9328 39.3504 10.2212 36.5198 10.2212C36.1187 10.2212 35.7291 10.1733 35.3549 10.0872L34.0097 12.4101H34.0077L32.7738 14.5415C33.8811 15.4772 34.5854 16.8758 34.5854 18.4371C34.5854 20.075 33.8139 21.5311 32.6126 22.4667L34.0077 24.8756L34.0097 24.8737L35.3376 27.1678C35.7176 27.0779 36.1129 27.03 36.5198 27.03C38.9935 27.03 41.0603 28.7789 41.5401 31.1055H47.3145C47.7943 28.7789 49.8592 27.03 52.3348 27.03C52.9969 27.03 53.6302 27.1563 54.2116 27.384L55.6663 24.8737L55.6682 24.8756L56.9156 22.7193C55.674 21.7855 54.8718 20.3046 54.8718 18.6361C54.8718 16.9696 55.672 15.4906 56.9098 14.5569L55.6663 12.412V12.4062L54.1982 9.87103C53.6206 10.0968 52.9911 10.2212 52.3348 10.2212C49.5042 10.2212 47.209 7.9328 47.209 5.11058C47.209 2.28838 49.5042 0 52.3348 0C55.1654 0 57.4587 2.28838 57.4587 5.11058C57.4587 6.51117 56.8926 7.78163 55.9772 8.7058ZM7.24066 30.0321C6.69949 29.4925 5.95105 29.1596 5.12585 29.1596C4.29874 29.1596 3.55222 29.4925 3.01105 30.0321C2.46986 30.5717 2.13403 31.316 2.13403 32.1406C2.13403 32.9634 2.46986 33.7096 3.01105 34.2492C3.55222 34.7887 4.29874 35.1217 5.12585 35.1217C5.95105 35.1217 6.69949 34.7887 7.24066 34.2492C7.78185 33.7096 8.11575 32.9634 8.11575 32.1406C8.11575 31.316 7.78185 30.5717 7.24066 30.0321ZM59.8441 42.6737C60.6693 42.6737 61.4178 43.0085 61.957 43.5481C62.4982 44.0877 62.834 44.832 62.834 45.6566C62.834 46.4794 62.4982 47.2256 61.957 47.7652C61.4178 48.3047 60.6693 48.6376 59.8441 48.6376C59.017 48.6376 58.2705 48.3047 57.7293 47.7652C57.1881 47.2256 56.8523 46.4794 56.8523 45.6566C56.8523 44.832 57.1881 44.0877 57.7293 43.5481C58.2705 43.0085 59.017 42.6737 59.8441 42.6737ZM62.1124 16.5276C61.5712 15.9881 60.8228 15.6532 59.9976 15.6532C59.1724 15.6532 58.424 15.9881 57.8828 16.5276C57.3416 17.0672 57.0077 17.8115 57.0077 18.6361C57.0077 19.4589 57.3416 20.2051 57.8828 20.7447C58.424 21.2842 59.1724 21.6172 59.9976 21.6172C60.8228 21.6172 61.5712 21.2842 62.1124 20.7447C62.6536 20.2051 62.9875 19.4589 62.9875 18.6361C62.9875 17.8115 62.6536 17.0672 62.1124 16.5276ZM29.4595 15.4561C30.2847 15.4561 31.0332 15.789 31.5743 16.3286C32.1155 16.8682 32.4494 17.6144 32.4494 18.4371C32.4494 19.2618 32.1155 20.0061 31.5743 20.5457C31.0332 21.0852 30.2847 21.4201 29.4595 21.4201C28.6324 21.4201 27.8859 21.0852 27.3447 20.5457C26.8035 20.0061 26.4677 19.2618 26.4677 18.4371C26.4677 17.6144 26.8035 16.8682 27.3447 16.3286C27.8859 15.789 28.6324 15.4561 29.4595 15.4561ZM15.7594 16.3286C15.2182 15.789 14.4698 15.4561 13.6446 15.4561C12.8194 15.4561 12.071 15.789 11.5298 16.3286C10.9886 16.8682 10.6547 17.6144 10.6547 18.4371C10.6547 19.2618 10.9886 20.0061 11.5298 20.5457C12.071 21.0852 12.8194 21.4201 13.6446 21.4201C14.4698 21.4201 15.2182 21.0852 15.7594 20.5457C16.3006 20.0061 16.6345 19.2618 16.6345 18.4371C16.6345 17.6144 16.3006 16.8682 15.7594 16.3286ZM29.3656 42.6737C30.1908 42.6737 30.9392 43.0085 31.4804 43.5481C32.0215 44.0877 32.3555 44.832 32.3555 45.6566C32.3555 46.4794 32.0215 47.2256 31.4804 47.7652C30.9392 48.3047 30.1908 48.6376 29.3656 48.6376C28.5384 48.6376 27.7919 48.3047 27.2507 47.7652C26.7096 47.2256 26.3737 46.4794 26.3737 45.6566C26.3737 44.832 26.7096 44.0877 27.2507 43.5481C27.7919 43.0085 28.5384 42.6737 29.3656 42.6737ZM15.6653 43.5481C15.1241 43.0085 14.3757 42.6737 13.5505 42.6737C12.7234 42.6737 11.9769 43.0085 11.4357 43.5481C10.8945 44.0877 10.5606 44.832 10.5606 45.6566C10.5606 46.4794 10.8945 47.2256 11.4357 47.7652C11.9769 48.3047 12.7234 48.6376 13.5505 48.6376C14.3757 48.6376 15.1241 48.3047 15.6653 47.7652C16.2065 47.2256 16.5404 46.4794 16.5404 45.6566C16.5404 44.832 16.2065 44.0877 15.6653 43.5481ZM52.3348 55.9084C53.16 55.9084 53.9084 56.2413 54.4496 56.7809C54.9908 57.3204 55.3247 58.0667 55.3247 58.8894C55.3247 59.7141 54.9908 60.4584 54.4496 60.9979C53.9084 61.5375 53.16 61.8704 52.3348 61.8704C51.5077 61.8704 50.7612 61.5375 50.22 60.9979C49.6788 60.4584 49.343 59.7141 49.343 58.8894C49.343 58.0667 49.6788 57.3204 50.22 56.7809C50.7612 56.2413 51.5077 55.9084 52.3348 55.9084ZM38.6345 56.7809C38.0934 56.2413 37.3449 55.9084 36.5197 55.9084C35.6926 55.9084 34.9461 56.2413 34.4049 56.7809C33.8638 57.3204 33.5298 58.0667 33.5298 58.8894C33.5298 59.7141 33.8638 60.4584 34.4049 60.9979C34.9461 61.5375 35.6926 61.8704 36.5197 61.8704C37.3449 61.8704 38.0934 61.5375 38.6345 60.9979C39.1757 60.4584 39.5096 59.7141 39.5096 58.8894C39.5096 58.0667 39.1757 57.3204 38.6345 56.7809ZM53.2867 60.2823L53.373 60.1331L52.8856 60.2823H53.2867ZM54.4496 30.0321C53.9084 29.4925 53.16 29.1596 52.3348 29.1596C51.5077 29.1596 50.7612 29.4925 50.22 30.0321C49.6788 30.5717 49.343 31.316 49.343 32.1406C49.343 32.9634 49.6788 33.7096 50.22 34.2492C50.7612 34.7887 51.5077 35.1217 52.3348 35.1217C53.16 35.1217 53.9084 34.7887 54.4496 34.2492C54.9908 33.7096 55.3247 32.9634 55.3247 32.1406C55.3247 31.316 54.9908 30.5717 54.4496 30.0321ZM36.5197 29.1596C37.3449 29.1596 38.0934 29.4925 38.6345 30.0321C39.1757 30.5717 39.5096 31.316 39.5096 32.1406C39.5096 32.9634 39.1757 33.7096 38.6345 34.2492C38.0934 34.7887 37.3449 35.1217 36.5197 35.1217C35.6926 35.1217 34.9461 34.7887 34.4049 34.2492C33.8638 33.7096 33.5298 32.9634 33.5298 32.1406C33.5298 31.316 33.8638 30.5717 34.4049 30.0321C34.9461 29.4925 35.6926 29.1596 36.5197 29.1596ZM54.4496 3.00206C53.9084 2.46249 53.16 2.12956 52.3348 2.12956C51.5077 2.12956 50.7612 2.46249 50.22 3.00206C49.6788 3.54163 49.343 4.28592 49.343 5.11058C49.343 5.93332 49.6788 6.67953 50.22 7.2191C50.7612 7.75867 51.5077 8.0916 52.3348 8.0916C53.16 8.0916 53.9084 7.75867 54.4496 7.2191C54.9908 6.67953 55.3247 5.93332 55.3247 5.11058C55.3247 4.28592 54.9908 3.54163 54.4496 3.00206ZM36.5197 2.12956C37.3449 2.12956 38.0934 2.46249 38.6345 3.00206C39.1757 3.54163 39.5096 4.28592 39.5096 5.11058C39.5096 5.93332 39.1757 6.67953 38.6345 7.2191C38.0934 7.75867 37.3449 8.0916 36.5197 8.0916C35.6926 8.0916 34.9461 7.75867 34.4049 7.2191C33.8638 6.67953 33.5298 5.93332 33.5298 5.11058C33.5298 4.28592 33.8638 3.54163 34.4049 3.00206C34.9461 2.46249 35.6926 2.12956 36.5197 2.12956Z" fill="#307FE2"/>
<path fill-rule="evenodd" clip-rule="evenodd" d="M52.2476 2.74286C53.5014 2.74286 54.5192 3.76505 54.5192 5.02857C54.5192 6.29013 53.5014 7.31429 52.2476 7.31429C50.9919 7.31429 49.976 6.29013 49.976 5.02857C49.976 3.76505 50.9919 2.74286 52.2476 2.74286Z" fill="#F9423A"/>
<path fill-rule="evenodd" clip-rule="evenodd" d="M81.5338 18.4092H83.1704L83.76 16.907H86.5756L87.1652 18.4092H88.9051L85.9459 11.2575H84.4911L81.5338 18.4092ZM85.1727 13.3523L85.9651 15.3758H84.3707L85.1727 13.3523ZM88.1931 30.1563H86.5661V24.5376H84.0759V30.1563H82.4489V23.0046H88.1931V30.1563ZM83.8711 41.9033L87.0236 37.46V41.9033H88.6506V34.7516H87.2265L84.0759 39.1969V34.7516H82.4489V41.9033H83.8711ZM84.0759 51.219V53.6503H82.4489V46.4986C82.759 46.4986 83.1016 46.4948 83.4748 46.489C83.8557 46.4813 84.2386 46.4794 84.6233 46.4794C85.6282 46.4794 86.3594 46.7025 86.8207 47.1526C87.2744 47.5893 87.5021 48.1548 87.5021 48.8492C87.5021 49.5167 87.261 50.0841 86.7786 50.5554C86.2982 51.0189 85.6608 51.2498 84.8683 51.2498C84.5161 51.2498 84.252 51.2402 84.0759 51.219ZM84.696 48.0163C84.7496 48.0125 84.7802 48.0106 84.7879 48.0106C85.4444 48.0106 85.7737 48.2876 85.7737 48.8377C85.7737 49.132 85.6837 49.3513 85.5038 49.4975C85.3238 49.6436 85.0961 49.7167 84.8166 49.7167C84.606 49.7167 84.3591 49.6994 84.0758 49.6667V48.0317C84.1496 48.0317 84.2215 48.0311 84.2911 48.0298C84.3425 48.0289 84.3927 48.0276 84.4414 48.0259C84.5563 48.0221 84.6405 48.0202 84.696 48.0163Z" fill="#F9423A"/>
<path fill-rule="evenodd" clip-rule="evenodd" d="M123.997 17.7128L123.375 16.4842C122.913 16.8327 122.397 17.0061 121.825 17.0061C121.186 17.0061 120.667 16.8058 120.264 16.4033C119.865 15.9874 119.664 15.4655 119.664 14.8378C119.664 14.1484 119.85 13.6169 120.226 13.2414C120.606 12.8601 121.084 12.6694 121.662 12.6694C122.159 12.6694 122.644 12.8158 123.12 13.1085L123.843 11.8819C123.613 11.6565 123.304 11.4755 122.917 11.3388C122.529 11.204 122.111 11.1347 121.662 11.1347C120.479 11.1347 119.562 11.4832 118.91 12.1784C118.257 12.8736 117.931 13.7613 117.931 14.8378C117.931 15.9431 118.278 16.8385 118.971 17.5279C119.664 18.2038 120.564 18.5408 121.673 18.5408C122.155 18.5408 122.608 18.4657 123.028 18.3155C123.456 18.1595 123.778 17.9573 123.997 17.7128ZM92.2429 18.4176H90.6137V11.2579H94.6897V12.7927H92.2429V18.4176ZM100.959 18.4176H96.6279V11.2579H100.857V12.7927H98.2571V14.0502H100.552V15.5849H98.2571V16.8848H100.959V18.4176ZM107.534 18.4176H109.165V11.2579H107.534V14.0001H104.935V11.2579H103.304V18.4176H104.935V15.5329H107.534V18.4176ZM113.141 12.7927H110.999V11.2579H116.912V12.7927H114.772V18.4176H113.141V12.7927ZM127.257 12.7927H125.118V11.2579H131.03V12.7927H128.891V18.4176H127.257V12.7927ZM132.865 11.2791V18.3983C133.287 18.4388 133.97 18.458 134.914 18.458C135.722 18.458 136.375 18.2712 136.872 17.8957C137.373 17.5144 137.626 16.9656 137.626 16.2493C137.626 15.8333 137.532 15.4848 137.344 15.2056C137.158 14.9263 136.912 14.7299 136.605 14.6124V14.5932C137.15 14.2312 137.421 13.6997 137.421 12.9968C137.421 12.4441 137.219 12.0089 136.814 11.6931C136.411 11.3754 135.814 11.2175 135.026 11.2175C134.381 11.2175 133.659 11.2367 132.865 11.2791ZM135.127 15.5233H134.496V16.8636C134.646 16.904 134.828 16.9252 135.047 16.9252C135.678 16.9252 135.995 16.6729 135.995 16.1684C135.995 15.739 135.705 15.5233 135.127 15.5233ZM134.496 12.7927C134.713 12.7657 134.884 12.7522 135.006 12.7522C135.229 12.7522 135.417 12.81 135.567 12.9255C135.715 13.0411 135.791 13.1971 135.791 13.3954C135.791 13.8595 135.538 14.0906 135.035 14.0906H134.496V12.7927ZM139.46 14.8378C139.46 13.7806 139.81 12.9005 140.51 12.1996C141.216 11.489 142.13 11.1347 143.252 11.1347C144.366 11.1347 145.273 11.4736 145.974 12.1476C146.688 12.8235 147.044 13.7189 147.044 14.8378C147.044 15.9161 146.684 16.8019 145.964 17.4971C145.25 18.1923 144.346 18.5408 143.252 18.5408C142.143 18.5408 141.234 18.2038 140.52 17.5279C139.814 16.852 139.46 15.9566 139.46 14.8378ZM141.794 16.3821C141.393 15.9604 141.193 15.4443 141.193 14.8377C141.193 14.1965 141.387 13.6746 141.773 13.2741C142.16 12.8716 142.654 12.6694 143.252 12.6694C143.83 12.6694 144.319 12.8716 144.72 13.2741C145.114 13.6689 145.31 14.1907 145.31 14.8377C145.31 15.4655 145.131 15.9874 144.77 16.4033C144.41 16.8058 143.905 17.006 143.252 17.006C142.675 17.006 142.187 16.7981 141.794 16.3821ZM95.1483 30.1777H90.8171V23.018H95.0466V24.5528H92.4482V25.8102H94.7415V27.345H92.4482V28.6448H95.1483V30.1777ZM99.1245 30.1777V27.7436C99.301 27.7648 99.5658 27.7744 99.9189 27.7744C100.715 27.7744 101.354 27.5434 101.836 27.0793C102.318 26.6094 102.56 26.0394 102.56 25.3712C102.56 24.676 102.333 24.1099 101.876 23.6727C101.414 23.2221 100.681 22.9968 99.6752 22.9968C99.2876 22.9968 98.9038 23.0007 98.5238 23.0084C98.1496 23.0142 97.8061 23.018 97.4933 23.018V30.1777H99.1245ZM99.7761 24.5353L99.7463 24.5374L99.677 24.5401C99.6277 24.542 99.5654 24.5445 99.491 24.547C99.4333 24.5489 99.3737 24.5504 99.3124 24.5513C99.2513 24.5523 99.1886 24.5528 99.1245 24.5528V26.1896C99.4104 26.2223 99.658 26.2397 99.8691 26.2397C100.147 26.2397 100.376 26.1665 100.556 26.0201C100.736 25.8738 100.827 25.6543 100.827 25.3616C100.827 24.8089 100.497 24.5316 99.8384 24.5316C99.8355 24.5316 99.8296 24.5319 99.8204 24.5324L99.7761 24.5353ZM104.699 30.1777H109.032V28.6448H106.33V27.345H108.626V25.8102H106.33V24.5528H108.931V23.018H104.699V30.1777ZM112.091 31.4062H110.562V28.6448H111.326C111.531 28.3714 111.736 27.8707 111.947 27.1409C112.166 26.3976 112.3 25.5002 112.356 24.4507L112.418 23.018H117.075V28.6448H118.044V31.4062H116.515V30.1777H112.091V31.4062ZM113.884 25.7602L113.997 24.5528H115.444V28.6448H113.12C113.249 28.4734 113.396 28.0979 113.557 27.5183C113.728 26.9194 113.838 26.3321 113.884 25.7602ZM119.288 26.5978C119.288 25.5406 119.637 24.6606 120.337 23.9597C121.044 23.2491 121.957 22.8948 123.08 22.8948C124.193 22.8948 125.1 23.2337 125.801 23.9077C126.515 24.5836 126.872 25.479 126.872 26.5978C126.872 27.6762 126.511 28.562 125.791 29.2572C125.077 29.9524 124.174 30.3009 123.08 30.3009C121.971 30.3009 121.061 29.9639 120.347 29.288C119.641 28.614 119.288 27.7167 119.288 26.5978ZM121.621 28.1422C121.22 27.7205 121.021 27.2044 121.021 26.5978C121.021 25.9566 121.214 25.4347 121.6 25.0323C121.988 24.6317 122.481 24.4295 123.08 24.4295C123.657 24.4295 124.147 24.6317 124.548 25.0323C124.941 25.4289 125.137 25.9508 125.137 26.5978C125.137 27.2256 124.958 27.7475 124.598 28.1634C124.237 28.5659 123.732 28.7661 123.08 28.7661C122.502 28.7661 122.015 28.5582 121.621 28.1422ZM129.011 30.1584V23.0392C129.806 22.9968 130.527 22.9776 131.172 22.9776C131.961 22.9776 132.558 23.1355 132.963 23.4532C133.366 23.771 133.569 24.2042 133.569 24.7569C133.569 25.4598 133.297 25.9912 132.753 26.3533V26.3725C133.059 26.4881 133.304 26.6864 133.492 26.9656C133.678 27.2468 133.772 27.5934 133.772 28.0093C133.772 28.7257 133.521 29.2745 133.018 29.6558C132.521 30.0313 131.869 30.22 131.061 30.22C130.115 30.22 129.434 30.1988 129.011 30.1584ZM130.643 27.2833H131.274C131.852 27.2833 132.141 27.499 132.141 27.9284C132.141 28.433 131.825 28.6852 131.193 28.6852C130.976 28.6852 130.792 28.664 130.643 28.6236V27.2833ZM131.153 24.5104C131.03 24.5104 130.859 24.5258 130.643 24.5528V25.8507H131.184C131.686 25.8507 131.938 25.6196 131.938 25.1555C131.938 24.9591 131.863 24.8012 131.713 24.6857C131.564 24.5701 131.378 24.5104 131.153 24.5104ZM141.671 30.1777H143.302V23.018H141.671V30.1777ZM138.236 26.7519C138.161 26.7519 137.998 26.7692 137.747 26.8019V28.6236C137.966 28.6506 138.125 28.6641 138.227 28.6641C138.906 28.6641 139.245 28.3348 139.245 27.6723C139.245 27.3719 139.157 27.1428 138.981 26.9868C138.804 26.8308 138.557 26.7519 138.236 26.7519ZM137.747 23.018H136.116V30.1777C136.38 30.1777 136.661 30.1815 136.952 30.1892C137.252 30.195 137.61 30.1989 138.033 30.1989C138.958 30.1989 139.681 29.9658 140.203 29.5037C140.721 29.0319 140.978 28.408 140.978 27.6319C140.978 26.8674 140.756 26.2743 140.311 25.8507C139.865 25.429 139.222 25.2171 138.38 25.2171C138.155 25.2171 137.944 25.2306 137.747 25.2576V23.018ZM149.898 23.018H151.815L149.532 26.5266L151.905 30.1777H149.99L148.461 27.7744L146.952 30.1777H145.035L147.411 26.5266L145.148 23.018H147.064L148.511 25.3192L149.898 23.018ZM96.8313 41.2329L96.2095 40.0044C95.7471 40.3529 95.2308 40.5262 94.6609 40.5262C94.0219 40.5262 93.5018 40.326 93.1007 39.9235C92.6996 39.5075 92.4982 38.9857 92.4982 38.3579C92.4982 37.6705 92.6862 37.137 93.0604 36.7635C93.4404 36.3803 93.9182 36.1896 94.4958 36.1896C94.9929 36.1896 95.4784 36.336 95.9543 36.6287L96.6778 35.402C96.4475 35.1767 96.1385 34.9957 95.7509 34.8609C95.3633 34.7242 94.9449 34.6549 94.4958 34.6549C93.3137 34.6549 92.3964 35.0034 91.744 35.6986C91.0915 36.3937 90.7653 37.2815 90.7653 38.3579C90.7653 39.4633 91.1126 40.3606 91.8054 41.0481C92.4982 41.724 93.3982 42.061 94.5074 42.061C94.989 42.061 95.4419 41.9859 95.8622 41.8357C96.2901 41.6797 96.6125 41.4775 96.8313 41.2329ZM103.396 40.0044L104.018 41.2329C103.799 41.4775 103.477 41.6797 103.049 41.8357C102.627 41.9859 102.176 42.061 101.694 42.061C100.585 42.061 99.6849 41.724 98.9921 41.0481C98.2994 40.3606 97.952 39.4633 97.952 38.3579C97.952 37.2815 98.2783 36.3937 98.9307 35.6986C99.5832 35.0034 100.5 34.6549 101.683 34.6549C102.132 34.6549 102.55 34.7242 102.938 34.8609C103.325 34.9957 103.634 35.1767 103.865 35.402L103.141 36.6287C102.665 36.336 102.18 36.1896 101.683 36.1896C101.105 36.1896 100.627 36.3803 100.245 36.7635C99.873 37.137 99.6849 37.6705 99.6849 38.3579C99.6849 38.9857 99.8864 39.5075 100.287 39.9235C100.689 40.326 101.209 40.5262 101.846 40.5262C102.418 40.5262 102.934 40.3529 103.396 40.0044ZM109.777 41.9377H111.408V34.7781H106.678L106.576 36.2108C106.467 37.7243 106.307 38.7873 106.096 39.4016C106.002 39.6885 105.897 39.9023 105.782 40.0467C105.665 40.1815 105.557 40.2662 105.459 40.297C105.361 40.3278 105.237 40.3298 105.089 40.3028L105.056 41.9377C105.649 42.0398 106.129 41.9935 106.499 41.7952C106.87 41.5969 107.186 41.1694 107.447 40.5108C107.708 39.8541 107.912 38.9048 108.054 37.6627L108.207 36.3128H109.777V41.9377ZM118.39 41.9377H114.058V34.7781H118.288V36.3128H115.69V37.5703H117.983V39.105H115.69V40.4049H118.39V41.9377ZM119.919 43.1663H121.448V41.9377H125.872V43.1663H127.401V40.4049H126.432V34.7781H121.775L121.713 36.2108C121.66 37.2602 121.523 38.1576 121.305 38.9009C121.095 39.6307 120.888 40.1314 120.683 40.4049H119.919V43.1663ZM123.354 36.3129L123.243 37.5203C123.195 38.0922 123.085 38.6795 122.917 39.2784C122.753 39.858 122.608 40.2335 122.477 40.4049H124.801V36.3129H123.354ZM129.694 35.7197C128.994 36.4207 128.645 37.3007 128.645 38.3579C128.645 39.4767 128.998 40.3741 129.704 41.0481C130.418 41.724 131.329 42.061 132.437 42.061C133.531 42.061 134.434 41.7144 135.148 41.0173C135.868 40.3221 136.229 39.4363 136.229 38.3579C136.229 37.2391 135.872 36.3437 135.158 35.6678C134.457 34.9938 133.552 34.6549 132.437 34.6549C131.316 34.6549 130.401 35.0092 129.694 35.7197ZM130.378 38.3579C130.378 38.9645 130.577 39.4806 130.978 39.9023C131.374 40.3182 131.859 40.5262 132.437 40.5262C133.089 40.5262 133.596 40.3259 133.955 39.9235C134.316 39.5075 134.496 38.9857 134.496 38.3579C134.496 37.7109 134.298 37.189 133.905 36.7923C133.504 36.3918 133.014 36.1896 132.437 36.1896C131.838 36.1896 131.345 36.3918 130.959 36.7923C130.572 37.1948 130.378 37.7167 130.378 38.3579ZM138.369 34.7993V41.9185C138.791 41.9589 139.474 41.9801 140.418 41.9801C141.228 41.9801 141.878 41.7914 142.375 41.4159C142.878 41.0346 143.13 40.4858 143.13 39.7694C143.13 39.3535 143.036 39.0069 142.849 38.7257C142.663 38.4465 142.416 38.2482 142.111 38.1326V38.1134C142.654 37.7513 142.926 37.2199 142.926 36.517C142.926 35.9643 142.723 35.5291 142.32 35.2133C141.915 34.8956 141.318 34.7377 140.529 34.7377C139.885 34.7377 139.165 34.7569 138.369 34.7993ZM140.631 39.0434H140V40.3837C140.149 40.4241 140.334 40.4453 140.55 40.4453C141.184 40.4453 141.498 40.1931 141.498 39.6885C141.498 39.2591 141.209 39.0434 140.631 39.0434ZM140 36.3128C140.218 36.2859 140.387 36.2724 140.51 36.2724C140.735 36.2724 140.921 36.3302 141.07 36.4457C141.22 36.5613 141.295 36.7192 141.295 36.9156C141.295 37.3797 141.044 37.6107 140.541 37.6107H140V36.3128ZM146.198 41.9377H144.557L147.522 34.7781H148.981L151.947 41.9377H150.203L149.612 40.4337H146.789L146.198 41.9377ZM148.206 36.8752L149.002 38.901H147.401L148.206 36.8752ZM159.541 41.9377H157.91V39.055H155.31V41.9377H153.68V34.7781H155.31V37.5202H157.91V34.7781H159.541V41.9377ZM163.617 41.9377L166.778 37.4894V41.9377H168.409V34.7781H166.981L163.822 39.2283V34.7781H162.191V41.9377H163.617ZM175.645 37.4894L172.487 41.9377H171.059V34.7781H172.69V39.2283L175.851 34.7781H177.277V41.9377H175.645V37.4894ZM173.709 32.9371H172.182C172.182 33.4359 172.374 33.8326 172.757 34.1291C173.141 34.4257 173.669 34.574 174.343 34.574C174.974 34.574 175.486 34.4238 175.882 34.1233C176.283 33.8229 176.475 33.4282 176.461 32.9371H174.934C174.934 33.1355 174.889 33.2703 174.801 33.3415C174.711 33.4128 174.559 33.4494 174.343 33.4494C174.11 33.4494 173.947 33.4109 173.853 33.3357C173.757 33.2606 173.709 33.1278 173.709 32.9371ZM187.369 37.4894L184.208 41.9377H182.782V34.7781H184.412V39.2283L187.572 34.7781H189V41.9377H187.369V37.4894ZM88.0441 53.6978H89.6849L90.2759 52.1958H93.1007L93.6918 53.6978H95.4343L92.4675 46.5381H91.0109L88.0441 53.6978ZM92.4885 50.661L91.6941 48.6352L90.8881 50.661H92.4885ZM96.5549 52.5327C97.1134 53.3916 97.9654 53.821 99.1149 53.821C99.7865 53.821 100.381 53.6265 100.898 53.2375C101.414 52.8428 101.673 52.3286 101.673 51.6932C101.673 50.7996 101.281 50.2316 100.5 49.9851V49.9543C101.099 49.5595 101.399 49.0511 101.399 48.4311C101.399 47.8033 101.197 47.3103 100.796 46.9521C100.395 46.594 99.8614 46.4149 99.1955 46.4149C98.6927 46.4149 98.2264 46.5227 97.7946 46.7384C97.3628 46.9521 97.0251 47.2371 96.7794 47.5915L97.7178 48.6968C98.0709 48.1981 98.4931 47.9496 98.9825 47.9496C99.2262 47.9496 99.4181 48.0055 99.5582 48.1191C99.6964 48.2308 99.7674 48.3964 99.7674 48.614C99.7674 48.8201 99.6848 48.9799 99.5217 49.0954C99.3586 49.211 99.1475 49.2687 98.8904 49.2687H98.2782V50.8035H98.9307C99.2914 50.8035 99.5659 50.869 99.7558 50.998C99.9478 51.127 100.042 51.3042 100.042 51.5295C100.042 51.7817 99.9478 51.9724 99.7558 52.0975C99.5659 52.2246 99.3279 52.2863 99.042 52.2863C98.4931 52.2863 97.9596 51.9974 97.4415 51.4178L96.5549 52.5327ZM105.649 51.2638V53.6978H104.018V46.5382C104.329 46.5382 104.674 46.5343 105.047 46.5285C105.427 46.5208 105.812 46.5189 106.198 46.5189C107.206 46.5189 107.939 46.7423 108.401 47.1929C108.856 47.63 109.084 48.1962 109.084 48.8913C109.084 49.5596 108.842 50.1276 108.361 50.5994C107.877 51.0635 107.238 51.2946 106.444 51.2946C106.091 51.2946 105.826 51.285 105.649 51.2638ZM106.271 48.0575C106.325 48.0536 106.355 48.0517 106.361 48.0517C107.021 48.0517 107.351 48.329 107.351 48.8798C107.351 49.1744 107.261 49.3939 107.081 49.5403C106.9 49.6866 106.67 49.7598 106.392 49.7598C106.183 49.7598 105.933 49.7425 105.649 49.7097V48.0729C105.778 48.0729 105.899 48.071 106.016 48.0671C106.131 48.0633 106.215 48.0613 106.271 48.0575ZM111.295 53.6978H109.654L112.621 46.5381H114.078L117.044 53.6978H115.302L114.711 52.1958H111.886L111.295 53.6978ZM113.304 48.6352L114.099 50.661H112.498L113.304 48.6352ZM118.777 53.6978V46.5381H123.08V48.0729H120.408V49.2091C120.606 49.1667 120.877 49.1474 121.224 49.1474C121.917 49.1474 122.475 49.3477 122.895 49.7502C123.323 50.1526 123.538 50.688 123.538 51.3562C123.538 52.113 123.295 52.7003 122.809 53.1201C122.324 53.5399 121.642 53.7498 120.765 53.7498C120.405 53.7498 120.007 53.7402 119.572 53.719C119.451 53.719 119.326 53.717 119.199 53.7132C119.129 53.7121 119.067 53.7104 119.015 53.7084C118.976 53.7069 118.943 53.7052 118.915 53.7036C118.85 53.6997 118.804 53.6978 118.777 53.6978ZM120.408 50.7419C120.654 50.7014 120.88 50.6803 121.092 50.6803C121.364 50.6803 121.567 50.7554 121.704 50.9017C121.84 51.0481 121.907 51.2406 121.907 51.4794C121.907 51.9705 121.612 52.215 121.021 52.215C120.938 52.215 120.735 52.1977 120.408 52.165V50.7419ZM125.373 50.118C125.373 49.0608 125.722 48.1827 126.423 47.4798C127.129 46.7711 128.042 46.4149 129.165 46.4149C130.28 46.4149 131.186 46.7538 131.886 47.4278C132.6 48.1037 132.957 49.0011 132.957 50.118C132.957 51.1963 132.596 52.0821 131.876 52.7773C131.163 53.4744 130.259 53.821 129.165 53.821C128.058 53.821 127.146 53.484 126.432 52.8081C125.726 52.1341 125.373 51.2368 125.373 50.118ZM127.706 51.6624C127.305 51.2407 127.106 50.7246 127.106 50.118C127.106 49.4767 127.3 48.9568 127.687 48.5544C128.073 48.15 128.566 47.9497 129.165 47.9497C129.743 47.9497 130.232 48.15 130.633 48.5544C131.026 48.9491 131.224 49.471 131.224 50.118C131.224 50.7458 131.044 51.2676 130.683 51.6836C130.322 52.086 129.817 52.2863 129.165 52.2863C128.587 52.2863 128.102 52.0783 127.706 51.6624ZM136.116 48.0729H133.976V46.5381H139.888V48.0729H137.747V53.6978H136.116V48.0729ZM141.957 47.4798C141.257 48.1827 140.907 49.0608 140.907 50.118C140.907 51.2368 141.26 52.1341 141.967 52.8081C142.681 53.484 143.592 53.821 144.699 53.821C145.793 53.821 146.697 53.4744 147.411 52.7773C148.131 52.0821 148.491 51.1963 148.491 50.118C148.491 49.0011 148.134 48.1037 147.421 47.4278C146.722 46.7538 145.814 46.4149 144.699 46.4149C143.579 46.4149 142.663 46.7711 141.957 47.4798ZM142.64 50.118C142.64 50.7246 142.84 51.2407 143.241 51.6624C143.636 52.0783 144.122 52.2863 144.699 52.2863C145.352 52.2863 145.858 52.086 146.217 51.6836C146.578 51.2676 146.758 50.7458 146.758 50.118C146.758 49.471 146.561 48.9491 146.167 48.5544C145.766 48.15 145.277 47.9497 144.699 47.9497C144.101 47.9497 143.609 48.15 143.222 48.5544C142.834 48.9568 142.64 49.4767 142.64 50.118ZM150.631 53.6978H152.262V50.2932L154.699 53.6978H156.768L153.874 49.8426L156.555 46.5381H154.598L152.262 49.6577V46.5381H150.631V53.6978Z" fill="black"/>
</svg>
