<svg xmlns="http://www.w3.org/2000/svg" viewBox="0 0 107.47 42.69"><defs><style>.cls-1{fill:#f9423a}</style></defs><title>logo-part2</title><g id="Layer_2" data-name="Layer 2"><g id="Layer_1-2" data-name="Layer 1"><path class="cls-1" d="M4.41.12H3L0 7.27h1.64l.59-1.5H5l.59 1.5h1.78zM2.84 4.24l.8-2 .79 2zM6.66 19.02H5.03V13.4H2.54v5.62H.92v-7.15h5.74v7.15zM2.34 30.77l3.15-4.45v4.45h1.63v-7.15H5.69l-3.15 4.44v-4.44H.92v7.15h1.42zM5.29 36a3.07 3.07 0 0 0-2.2-.68H.92v7.16h1.62v-2.4a5.28 5.28 0 0 0 .79 0 2.64 2.64 0 0 0 1.91-.7A2.28 2.28 0 0 0 6 37.71 2.24 2.24 0 0 0 5.29 36zM4 38.36a1 1 0 0 1-.69.22h-.74V36.9h.71c.66 0 1 .27 1 .82a.78.78 0 0 1-.28.64z"/><path d="M42.46 6.58l-.62-1.23a2.5 2.5 0 0 1-1.55.52 2.11 2.11 0 0 1-1.56-.6 2.18 2.18 0 0 1-.6-1.57 2.15 2.15 0 0 1 .56-1.59 2 2 0 0 1 1.44-.58 2.79 2.79 0 0 1 1.46.47l.72-1.25a2.47 2.47 0 0 0-.93-.55 3.85 3.85 0 0 0-1.25-.2 3.6 3.6 0 0 0-2.75 1 3.72 3.72 0 0 0-1 2.66 3.59 3.59 0 0 0 1 2.69 3.68 3.68 0 0 0 2.7 1 4 4 0 0 0 1.35-.23 2.44 2.44 0 0 0 1.03-.54zM10.71 7.28H9.08V.12h4.08v1.54h-2.45v5.62zM19.43 7.28h-4.34V.12h4.23v1.54h-2.6v1.26h2.3v1.53h-2.3v1.3h2.71v1.53zM26 7.28h1.63V.12H26v2.75h-2.6V.12h-1.63v7.16h1.63V4.4H26v2.88zM31.61 1.66h-2.15V.12h5.92v1.54h-2.14v5.62h-1.63V1.66zM45.72 1.66h-2.14V.12h5.92v1.54h-2.14v5.62h-1.64V1.66zM55.81 4.07a1.53 1.53 0 0 0-.74-.59 1.78 1.78 0 0 0 .82-1.6 1.54 1.54 0 0 0-.61-1.3 2.83 2.83 0 0 0-1.79-.5q-1 0-2.16.06v7.12c.42 0 1.11.06 2.05.06a3.14 3.14 0 0 0 2-.56 2 2 0 0 0 .75-1.65 1.82 1.82 0 0 0-.32-1.04zM53 1.66a3.87 3.87 0 0 1 .51 0 .91.91 0 0 1 .56.17.57.57 0 0 1 .23.47c0 .46-.26.7-.76.7H53zm.55 4.13a2.15 2.15 0 0 1-.55-.06V4.39h.63c.58 0 .87.21.87.64s-.36.76-.99.76zM64.44 1a3.78 3.78 0 0 0-2.72-1A3.68 3.68 0 0 0 59 1.06a3.61 3.61 0 0 0-1 2.64 3.53 3.53 0 0 0 1 2.69 3.79 3.79 0 0 0 2.73 1 3.71 3.71 0 0 0 2.71-1 3.53 3.53 0 0 0 1.07-2.69A3.55 3.55 0 0 0 64.44 1zm-1.2 4.26a2.12 2.12 0 0 1-3 0 2.17 2.17 0 0 1-.6-1.55 2.14 2.14 0 0 1 .58-1.56 2 2 0 0 1 1.48-.61 2 2 0 0 1 1.47.61 2.13 2.13 0 0 1 .59 1.56 2.32 2.32 0 0 1-.52 1.56zM13.61 19.04H9.28v-7.16h4.23v1.54h-2.6v1.26h2.3v1.53h-2.3v1.3h2.7v1.53zM20.34 12.54a3 3 0 0 0-2.2-.68H16V19h1.63v-2.39a7.77 7.77 0 0 0 .8 0 2.61 2.61 0 0 0 1.91-.7 2.31 2.31 0 0 0 .73-1.7 2.24 2.24 0 0 0-.73-1.67zM19 14.89a1.08 1.08 0 0 1-.68.21 5.32 5.32 0 0 1-.75 0v-1.68h.71c.66 0 1 .27 1 .83a.81.81 0 0 1-.28.64zM23.16 19.04h4.34v-1.53h-2.7v-1.3h2.29v-1.53H24.8v-1.26h2.6v-1.54h-4.24v7.16zM35.54 17.51v-5.63h-4.66l-.06 1.44a11.55 11.55 0 0 1-.41 2.68 4.84 4.84 0 0 1-.62 1.5H29v2.76h1.53V19H35v1.23h1.53v-2.72zm-1.63 0h-2.32a3.92 3.92 0 0 0 .41-1.13 9.42 9.42 0 0 0 .33-1.75l.11-1.21h1.45zM44.27 12.77a3.78 3.78 0 0 0-2.72-1 3.68 3.68 0 0 0-2.75 1.07 3.57 3.57 0 0 0-1 2.63 3.56 3.56 0 0 0 1.06 2.69 3.83 3.83 0 0 0 2.74 1 3.73 3.73 0 0 0 2.71-1.05 3.53 3.53 0 0 0 1.08-2.66 3.55 3.55 0 0 0-1.12-2.68zM43.06 17a2.11 2.11 0 0 1-3 0 2.17 2.17 0 0 1-.6-1.55 2.14 2.14 0 0 1 .58-1.56 2 2 0 0 1 1.48-.61 2 2 0 0 1 1.48.62 2.09 2.09 0 0 1 .59 1.56 2.32 2.32 0 0 1-.53 1.54zM52 15.83a1.48 1.48 0 0 0-.74-.59 1.8 1.8 0 0 0 .82-1.6 1.58 1.58 0 0 0-.61-1.3 2.85 2.85 0 0 0-1.79-.48q-1 0-2.16.06V19c.42 0 1.1.07 2.05.07a3.1 3.1 0 0 0 1.95-.57 1.93 1.93 0 0 0 .76-1.65 1.9 1.9 0 0 0-.28-1.02zm-2.85-2.41a3.87 3.87 0 0 1 .51 0 .93.93 0 0 1 .56.17.56.56 0 0 1 .22.47c0 .46-.25.7-.75.7h-.54zm.55 4.13a2.15 2.15 0 0 1-.55-.06v-1.34h.63c.58 0 .87.21.87.64s-.36.76-.99.76zM60.14 11.88h1.63v7.16h-1.63zM58.78 14.72a2.68 2.68 0 0 0-1.93-.64 6.28 6.28 0 0 0-.64 0v-2.2h-1.63V19h1.92a3.18 3.18 0 0 0 2.17-.69 2.4 2.4 0 0 0 .77-1.87 2.34 2.34 0 0 0-.66-1.72zm-2.09 2.81a3.74 3.74 0 0 1-.48 0v-1.86a3.47 3.47 0 0 1 .49-.05 1.14 1.14 0 0 1 .75.23.9.9 0 0 1 .26.69.89.89 0 0 1-1.02.99zM68.36 11.88h1.92L68 15.39l2.37 3.65h-1.91l-1.53-2.4-1.51 2.4H63.5l2.38-3.65-2.27-3.51h1.92l1.45 2.31 1.38-2.31zM15.3 30.1l-.62-1.23a2.52 2.52 0 0 1-1.55.52 2.11 2.11 0 0 1-1.56-.6 2.19 2.19 0 0 1-.57-1.57 2.13 2.13 0 0 1 .57-1.59 1.94 1.94 0 0 1 1.43-.58 2.79 2.79 0 0 1 1.46.44l.72-1.22a2.36 2.36 0 0 0-.92-.54 3.7 3.7 0 0 0-1.26-.21 3.6 3.6 0 0 0-2.75 1 3.77 3.77 0 0 0-1 2.66 3.62 3.62 0 0 0 1 2.69 3.68 3.68 0 0 0 2.7 1 4 4 0 0 0 1.36-.23 2.44 2.44 0 0 0 .99-.54zM21.86 28.87l.62 1.23a2.4 2.4 0 0 1-1 .6 4.09 4.09 0 0 1-1.36.23 3.68 3.68 0 0 1-2.7-1 3.62 3.62 0 0 1-1-2.69 3.72 3.72 0 0 1 1-2.66 3.6 3.6 0 0 1 2.75-1 3.6 3.6 0 0 1 1.25.21 2.33 2.33 0 0 1 .93.54l-.72 1.22a2.79 2.79 0 0 0-1.46-.44 2 2 0 0 0-1.44.58 2.44 2.44 0 0 0 0 3.16 2.14 2.14 0 0 0 1.56.6 2.5 2.5 0 0 0 1.57-.58zM28.24 30.8h1.63v-7.16h-4.73L25 25.08a14.44 14.44 0 0 1-.48 3.19 2.12 2.12 0 0 1-.31.64.8.8 0 0 1-.32.25.75.75 0 0 1-.37 0v1.63a2.18 2.18 0 0 0 1.48-.13 2.39 2.39 0 0 0 .94-1.28 11.68 11.68 0 0 0 .61-2.85l.15-1.35h1.57zM36.86 30.8h-4.34v-7.16h4.23v1.54h-2.59v1.26h2.29v1.53h-2.29v1.3h2.7v1.53zM44.9 29.27v-5.63h-4.66l-.06 1.44a11.55 11.55 0 0 1-.41 2.69 5.1 5.1 0 0 1-.62 1.5h-.76V32h1.52v-1.2h4.43V32h1.53v-2.73zm-1.63 0h-2.33a3.84 3.84 0 0 0 .44-1.13 9.42 9.42 0 0 0 .33-1.75l.11-1.21h1.45zM53.62 24.53a3.76 3.76 0 0 0-2.72-1 3.67 3.67 0 0 0-2.74 1.07 3.57 3.57 0 0 0-1 2.63 3.53 3.53 0 0 0 1.06 2.69 3.8 3.8 0 0 0 2.73 1 3.69 3.69 0 0 0 2.71-1.05 3.84 3.84 0 0 0 0-5.35zm-1.2 4.26a1.93 1.93 0 0 1-1.52.6 2 2 0 0 1-1.46-.62 2.17 2.17 0 0 1-.6-1.55 2.14 2.14 0 0 1 .59-1.56 1.94 1.94 0 0 1 1.47-.61 2 2 0 0 1 1.47.61 2.13 2.13 0 0 1 .63 1.56 2.32 2.32 0 0 1-.58 1.57zM61.32 27.59a1.52 1.52 0 0 0-.74-.59 1.79 1.79 0 0 0 .81-1.6 1.56 1.56 0 0 0-.6-1.3 2.87 2.87 0 0 0-1.79-.5q-1 0-2.16.06v7.12c.42 0 1.1.07 2 .07a3.15 3.15 0 0 0 2-.57 2 2 0 0 0 .76-1.65 1.9 1.9 0 0 0-.28-1.04zm-2.85-2.41a3.64 3.64 0 0 1 .51 0 .93.93 0 0 1 .56.17.56.56 0 0 1 .22.47c0 .46-.25.7-.75.7h-.54zm.53 4.13a2.15 2.15 0 0 1-.55-.06v-1.34h.63c.58 0 .86.21.86.64s-.29.76-.94.76zM67.45 23.64H66l-3 7.16h1.64l.6-1.5h2.82l.59 1.5h1.74zm-1.58 4.13l.8-2 .8 2zM78.01 30.8h-1.63v-2.88h-2.6v2.88h-1.63v-7.16h1.63v2.75h2.6v-2.75h1.63v7.16zM82.08 30.8l3.16-4.44v4.44h1.64v-7.16h-1.43l-3.16 4.45v-4.45h-1.63v7.16h1.42zM94.11 26.36l-3.16 4.44h-1.42v-7.16h1.63v4.45l3.16-4.45h1.42v7.16h-1.63v-4.44zM92.18 21.8h-1.53a1.42 1.42 0 0 0 .57 1.2 2.55 2.55 0 0 0 1.59.45 2.49 2.49 0 0 0 1.54-.45 1.38 1.38 0 0 0 .58-1.19H93.4a.5.5 0 0 1-.13.41 1.13 1.13 0 0 1-1 0 .46.46 0 0 1-.09-.42zM105.83 26.36l-3.16 4.44h-1.42v-7.16h1.63v4.45l3.16-4.45h1.43v7.16h-1.64v-4.44zM10.93 35.4H9.48l-3 7.16h1.67l.59-1.5h2.83l.59 1.5h1.74zm-1.58 4.13l.81-2 .79 2zM15 41.4a2.84 2.84 0 0 0 2.56 1.29 2.87 2.87 0 0 0 1.78-.59 1.84 1.84 0 0 0 .78-1.54A1.6 1.6 0 0 0 19 38.85a1.77 1.77 0 0 0 .9-1.52 1.89 1.89 0 0 0-.61-1.48 2.3 2.3 0 0 0-1.6-.54 3.16 3.16 0 0 0-1.4.32 2.59 2.59 0 0 0-1 .86l.93 1.1a1.55 1.55 0 0 1 1.27-.75.9.9 0 0 1 .51.16.61.61 0 0 1 .21.5.55.55 0 0 1-.21.5 1.06 1.06 0 0 1-.63.17h-.62v1.54h.66a1.44 1.44 0 0 1 .82.19.62.62 0 0 1 .29.53.63.63 0 0 1-.29.57 1.23 1.23 0 0 1-.71.19 2.19 2.19 0 0 1-1.6-.87zM26.87 36.06a3.08 3.08 0 0 0-2.21-.68h-2.18v7.16h1.64v-2.41a7.55 7.55 0 0 0 .79 0 2.65 2.65 0 0 0 1.92-.7 2.3 2.3 0 0 0 .72-1.7 2.27 2.27 0 0 0-.68-1.67zm-1.32 2.35a1.1 1.1 0 0 1-.69.22 7.24 7.24 0 0 1-.74-.05v-1.64h.71c.66 0 1 .27 1 .83a.81.81 0 0 1-.28.64zM32.54 35.4h-1.45l-3 7.16h1.64l.59-1.5h2.83l.59 1.5h1.74zM31 39.53l.81-2 .8 2zM41.36 38.62a2.29 2.29 0 0 0-1.67-.62 4.36 4.36 0 0 0-.82.06v-1.12h2.68V35.4h-4.31v7.16h1.95a3 3 0 0 0 2.09-.56 2.23 2.23 0 0 0 .72-1.78 2.07 2.07 0 0 0-.64-1.6zm-1.87 2.46h-.62v-1.47a4.39 4.39 0 0 1 .69-.06.73.73 0 0 1 .81.79c0 .5-.29.74-.88.74zM50.35 36.29a3.76 3.76 0 0 0-2.72-1 3.71 3.71 0 0 0-2.74 1.07 3.57 3.57 0 0 0-1 2.63 3.53 3.53 0 0 0 1.06 2.69 3.79 3.79 0 0 0 2.73 1 3.69 3.69 0 0 0 2.71-1 3.87 3.87 0 0 0 0-5.35zm-1.2 4.26a2.12 2.12 0 0 1-3 0 2.34 2.34 0 0 1 0-3.11 2 2 0 0 1 1.48-.6 2 2 0 0 1 1.47.6 2.13 2.13 0 0 1 .59 1.56 2.32 2.32 0 0 1-.54 1.55zM54.58 36.94h-2.14V35.4h5.91v1.54h-2.14v5.62h-1.63v-5.62zM65.89 36.29a3.78 3.78 0 0 0-2.72-1 3.73 3.73 0 0 0-2.75 1.07 3.88 3.88 0 0 0 0 5.32 3.83 3.83 0 0 0 2.74 1 3.73 3.73 0 0 0 2.71-1 3.87 3.87 0 0 0 0-5.35zm-1.21 4.26a2.11 2.11 0 0 1-3 0 2.17 2.17 0 0 1-.6-1.55 2.14 2.14 0 0 1 .58-1.56 2.1 2.1 0 0 1 2.94 0 2.09 2.09 0 0 1 .62 1.56 2.32 2.32 0 0 1-.54 1.55zM69.1 42.56h1.63v-3.4l2.44 3.4h2.06l-2.89-3.85 2.68-3.31h-1.96l-2.33 3.12V35.4H69.1v7.16z"/></g></g></svg>