<svg xmlns="http://www.w3.org/2000/svg" viewBox="0 0 108 43"><defs><style>.cls-1{fill:#fff;}</style></defs><title>logo-part2-white</title><g id="Layer_2" data-name="Layer 2"><g id="Layer_1-2" data-name="Layer 1"><g id="Layer_1-2-2" data-name="Layer 1-2"><g id="Layer_2-2" data-name="Layer 2-2"><g id="Layer_1-2-2-2" data-name="Layer 1-2-2"><path class="cls-1" d="M4.43.14H3L0,7.33H1.65l.59-1.51H5l.59,1.51H7.41ZM2.86,4.28l.8-2,.79,2ZM6.7,19.12H5V13.5H2.55v5.62H.92V12H6.7ZM2.35,31l3.17-4.48V31H7.16v-7.2H5.72L2.55,28.24V23.77H.92V31Zm3,5.26a3.07,3.07,0,0,0-2.21-.69H.92v7.2H2.55V40.33a5.34,5.34,0,0,0,.8,0,2.63,2.63,0,0,0,1.92-.71A2.26,2.26,0,0,0,6,38a2.2,2.2,0,0,0-.71-1.73ZM4,38.6a1,1,0,0,1-.69.22H2.58V37.13H3.3c.66,0,1,.27,1,.83A.8.8,0,0,1,4,38.6Z"/><path class="cls-1" d="M42.69,6.64,42.06,5.4a2.51,2.51,0,0,1-1.56.52,2.16,2.16,0,0,1-1.56-.6,2.17,2.17,0,0,1-.61-1.58,2.1,2.1,0,0,1,.57-1.6,2,2,0,0,1,1.44-.58A2.74,2.74,0,0,1,41.81,2L42.53.77A2.37,2.37,0,0,0,41.6.22,3.83,3.83,0,0,0,40.34,0a3.62,3.62,0,0,0-2.76,1,3.76,3.76,0,0,0-1,2.68,3.65,3.65,0,0,0,1,2.71,3.72,3.72,0,0,0,2.71,1,4.22,4.22,0,0,0,1.36-.23A2.57,2.57,0,0,0,42.69,6.64Zm-31.92.7H9.13V.14h4.1V1.69H10.77Zm8.76,0H15.17V.14h4.25V1.69H16.81V3H19.1V4.49H16.79V5.8h2.72Zm6.61,0h1.64V.14H26.14V2.91H23.52V.14H21.89v7.2h1.63V4.44h2.62Zm5.64-5.65H29.62V.14h5.95V1.69H33.42V7.34H31.78ZM46,1.69H43.81V.14h5.95V1.69H47.61V7.34H46ZM56.11,4.11a1.51,1.51,0,0,0-.75-.59,1.8,1.8,0,0,0,.83-1.61A1.57,1.57,0,0,0,55.57.6a2.86,2.86,0,0,0-1.8-.5c-.67,0-1.39,0-2.17.06V7.32c.42,0,1.12.06,2.06.06a3.11,3.11,0,0,0,2-.56,2,2,0,0,0,.76-1.66A1.88,1.88,0,0,0,56.11,4.11ZM53.28,1.69a4.34,4.34,0,0,1,.51,0,.89.89,0,0,1,.57.17.58.58,0,0,1,.23.47c0,.46-.26.71-.77.71h-.54Zm.55,4.15a2.57,2.57,0,0,1-.55-.06V4.43h.63c.59,0,.88.22.88.65s-.36.76-1,.76ZM64.78,1a3.81,3.81,0,0,0-2.73-1,3.67,3.67,0,0,0-2.74,1.08,3.62,3.62,0,0,0-1,2.65,3.59,3.59,0,0,0,1,2.71,3.87,3.87,0,0,0,2.75,1,3.74,3.74,0,0,0,2.72-1,3.59,3.59,0,0,0,1.08-2.71A3.63,3.63,0,0,0,64.78,1ZM63.58,5.3a2.14,2.14,0,0,1-3,0h0A2.16,2.16,0,0,1,60,3.74a2.12,2.12,0,0,1,.58-1.57,2.11,2.11,0,0,1,3,0,2.17,2.17,0,0,1,.59,1.57,2.4,2.4,0,0,1-.52,1.57ZM13.68,19.17H9.33V12h4.25v1.55H11v1.26h2.31v1.54H11v1.31h2.71Zm6.77-6.54A3,3,0,0,0,18.24,12H16.08v7.17h1.64v-2.4h.81a2.62,2.62,0,0,0,1.92-.7,2.34,2.34,0,0,0,.73-1.71A2.27,2.27,0,0,0,20.45,12.63ZM19.1,15a1.13,1.13,0,0,1-.68.22,4.82,4.82,0,0,1-.76,0V13.52h.72c.66,0,1,.27,1,.83A.78.78,0,0,1,19.1,15Zm4.18,4.18h4.37V17.63H24.93V16.32h2.3V14.78h-2.3V13.52h2.62V12H23.28Zm12.45-1.54V12H31L31,13.42a11.67,11.67,0,0,1-.41,2.68A4.77,4.77,0,0,1,30,17.61h-.8v2.78h1.54V19.12h4.5v1.24h1.53V17.63Zm-1.64,0H31.76a4.2,4.2,0,0,0,.41-1.14,8.68,8.68,0,0,0,.33-1.76l.11-1.21h1.46ZM44.5,12.86a3.81,3.81,0,0,0-2.73-1A3.65,3.65,0,0,0,39,12.93a3.59,3.59,0,0,0-1,2.65,3.56,3.56,0,0,0,1.07,2.7,3.84,3.84,0,0,0,2.75,1,3.76,3.76,0,0,0,2.73-1.06,3.57,3.57,0,0,0,1.08-2.67A3.55,3.55,0,0,0,44.5,12.86Zm-1.21,4.25a2.12,2.12,0,0,1-3,0l0,0h0a2.2,2.2,0,0,1-.6-1.56A2.12,2.12,0,0,1,40.21,14a2.11,2.11,0,0,1,3,0,2.13,2.13,0,0,1,.59,1.57A2.33,2.33,0,0,1,43.29,17.11Zm9-1.17a1.51,1.51,0,0,0-.75-.59,1.83,1.83,0,0,0,.83-1.61,1.57,1.57,0,0,0-.62-1.31,2.79,2.79,0,0,0-1.8-.48c-.67,0-1.39,0-2.17.06v7.11c.42,0,1.11.07,2,.07a3.18,3.18,0,0,0,2-.57A2,2,0,0,0,52.56,17,1.91,1.91,0,0,0,52.28,15.94Zm-2.87-2.42h.51a.89.89,0,0,1,.57.17.57.57,0,0,1,.22.47c0,.46-.25.7-.76.7h-.54ZM50,17.67a2.57,2.57,0,0,1-.55-.06V16.26H50c.59,0,.88.21.88.65s-.36.76-1,.76ZM60.46,12H62.1v7.2H60.46Zm-1.37,2.85a2.67,2.67,0,0,0-1.94-.64h-.64V12H54.87v7.15H56.8a3.24,3.24,0,0,0,2.18-.7,2.43,2.43,0,0,0,.78-1.88A2.35,2.35,0,0,0,59.09,14.82ZM57,17.65a3.84,3.84,0,0,1-.48,0V15.78a2,2,0,0,1,.49,0,1.07,1.07,0,0,1,.75.23.9.9,0,0,1,.27.69.89.89,0,0,1-.75,1h0A1.14,1.14,0,0,1,57,17.65ZM68.72,12h1.93L68.36,15.5l2.38,3.67H68.82l-1.53-2.42-1.52,2.42H63.84l2.39-3.67L64,12h1.93l1.48,2.32ZM15.38,30.29l-.62-1.24a2.54,2.54,0,0,1-1.56.53A2.15,2.15,0,0,1,11.63,29a2.21,2.21,0,0,1-.57-1.57,2.14,2.14,0,0,1,.57-1.6,2,2,0,0,1,1.44-.59,2.85,2.85,0,0,1,1.47.45l.72-1.23a2.27,2.27,0,0,0-.92-.54,3.69,3.69,0,0,0-1.27-.22,3.65,3.65,0,0,0-2.77,1,3.77,3.77,0,0,0-1,2.67,3.65,3.65,0,0,0,1,2.71,3.77,3.77,0,0,0,2.72,1,4.29,4.29,0,0,0,1.37-.24A2.34,2.34,0,0,0,15.38,30.29ZM22,29.05l.62,1.24a2.5,2.5,0,0,1-1,.61,4.51,4.51,0,0,1-1.36.23,3.74,3.74,0,0,1-2.72-1,3.64,3.64,0,0,1-1-2.7,3.78,3.78,0,0,1,1-2.68,3.64,3.64,0,0,1,2.77-1,3.54,3.54,0,0,1,1.25.22,2.17,2.17,0,0,1,.94.54l-.73,1.23a2.79,2.79,0,0,0-1.46-.45,2,2,0,0,0-1.45.59,2.46,2.46,0,0,0,0,3.17,2.15,2.15,0,0,0,1.57.61A2.57,2.57,0,0,0,22,29.05ZM28.39,31H30V23.79H25.27l-.14,1.45a14.48,14.48,0,0,1-.48,3.21,2.11,2.11,0,0,1-.31.64,1,1,0,0,1-.32.26.81.81,0,0,1-.38,0V31a2.25,2.25,0,0,0,1.49-.14,2.43,2.43,0,0,0,.95-1.28,11.75,11.75,0,0,0,.61-2.87l.15-1.36h1.58Zm8.67,0H32.69V23.79h4.25v1.55h-2.6v1.27h2.3v1.56h-2.3v1.31h2.72Zm8-1.54V23.79H40.45l-.06,1.45A11.76,11.76,0,0,1,40,28a5,5,0,0,1-.62,1.51h-.77v2.73h1.53V31h4.46v1.2h1.53V29.46Zm-1.64,0h-2.3a4.28,4.28,0,0,0,.44-1.14,8.68,8.68,0,0,0,.33-1.76L42,25.34H43.5Zm10.4-4.77a3.82,3.82,0,0,0-2.73-1,3.66,3.66,0,0,0-2.75,1.08,3.58,3.58,0,0,0-1,2.65,3.52,3.52,0,0,0,1.07,2.7,3.8,3.8,0,0,0,2.74,1,3.72,3.72,0,0,0,2.72-1.06,3.85,3.85,0,0,0,0-5.38ZM52.66,29a2,2,0,0,1-1.53.61A2,2,0,0,1,49.66,29a2.19,2.19,0,0,1-.6-1.55,2.15,2.15,0,0,1,.59-1.57,1.93,1.93,0,0,1,1.48-.62,2,2,0,0,1,1.48.62,2.1,2.1,0,0,1,.67,1.57A2.31,2.31,0,0,1,52.7,29Zm9-1.2a1.59,1.59,0,0,0-.75-.6,1.79,1.79,0,0,0,.82-1.61,1.58,1.58,0,0,0-.61-1.3,2.87,2.87,0,0,0-1.8-.51c-.67,0-1.39,0-2.17.06V31c.42,0,1.11.07,2,.07a3.18,3.18,0,0,0,2-.58,2,2,0,0,0,.77-1.66,2,2,0,0,0-.24-1Zm-2.87-2.43a4.34,4.34,0,0,1,.51,0,.91.91,0,0,1,.57.17A.59.59,0,0,1,60,26c0,.46-.25.7-.76.7h-.54Zm.57,4.16a2.57,2.57,0,0,1-.55-.06V28.09h.63c.59,0,.87.21.87.64S60,29.5,59.31,29.5Zm8.5-5.71H66.35l-3,7.21H65l.61-1.51h2.83L69,31h1.75ZM66.22,28l.8-2,.81,2Zm12.2,3H76.79V28.1H74.17V31H72.53V23.79h1.64v2.77h2.62V23.79h1.62Zm4.1,0,3.17-4.47V31h1.65V23.79H85.9l-3.17,4.48V23.79H81.09V31ZM94.58,26.5,91.48,31H90V23.79h1.63v4.48l3.18-4.48h1.43V31H94.61Zm-1.94-4.59H91.13a1.42,1.42,0,0,0,.57,1.21,3,3,0,0,0,3.15,0,1.4,1.4,0,0,0,.58-1.2H93.9a.55.55,0,0,1-.14.42,1.17,1.17,0,0,1-1,0,.48.48,0,0,1-.09-.4Zm13.72,4.59L103.18,31h-1.42V23.79h1.64v4.48l3.16-4.48H108V31h-1.65Zm-95.4,9H9.53l-3,7.2H8.19l.6-1.51h2.84l.59,1.51H14ZM9.4,39.78l.81-2,.8,2Zm5.68,1.88A2.86,2.86,0,0,0,17.65,43a2.87,2.87,0,0,0,1.79-.59,1.86,1.86,0,0,0,.79-1.55,1.61,1.61,0,0,0-1.13-1.72A1.79,1.79,0,0,0,20,37.56a1.93,1.93,0,0,0-.62-1.49,2.35,2.35,0,0,0-1.61-.54,3.26,3.26,0,0,0-1.4.32,2.58,2.58,0,0,0-1,.87l.94,1.1a1.55,1.55,0,0,1,1.27-.75,1,1,0,0,1,.52.15.64.64,0,0,1,.21.5.58.58,0,0,1-.21.51,1.1,1.1,0,0,1-.64.17h-.62V40h.66a1.42,1.42,0,0,1,.83.19.62.62,0,0,1,.29.53.64.64,0,0,1-.29.57,1.33,1.33,0,0,1-.72.2A2.26,2.26,0,0,1,16,40.56ZM27,36.29a3,3,0,0,0-2.22-.69H22.6v7.2h1.65V40.38H25a2.68,2.68,0,0,0,1.93-.7,2.4,2.4,0,0,0,0-3.39h0Zm-1.32,2.36a1.1,1.1,0,0,1-.7.22h-.74V37.22H25c.67,0,1,.27,1,.84A.85.85,0,0,1,25.69,38.65Zm7-3H31.25l-3,7.2h1.65l.59-1.51h2.85l.59,1.51h1.75Zm-1.56,4.15.82-2,.8,2Zm10.42-.92a2.28,2.28,0,0,0-1.68-.63,3.73,3.73,0,0,0-.82.06V37.22h2.69v-1.6H37.44v7.2h2a3,3,0,0,0,2.1-.57,2.22,2.22,0,0,0,.72-1.78A2,2,0,0,0,41.58,38.86ZM39.7,41.33h-.62V39.86a4,4,0,0,1,.69-.06.72.72,0,0,1,.81.64v.15C40.58,41.09,40.29,41.33,39.7,41.33Zm10.92-4.81a3.81,3.81,0,0,0-2.74-1,3.69,3.69,0,0,0-2.75,1.08,4,4,0,0,0,.11,5.35,3.83,3.83,0,0,0,2.74,1,3.72,3.72,0,0,0,2.73-1,3.89,3.89,0,0,0,0-5.38ZM49.41,40.8a2.12,2.12,0,0,1-3,0h0a2.36,2.36,0,0,1,0-3.13,2.14,2.14,0,0,1,3,0A2.15,2.15,0,0,1,50,39.23,2.36,2.36,0,0,1,49.41,40.8Zm5.46-3.58H52.72v-1.6h5.94v1.6H56.51v5.65H54.87Zm11.37-.65a3.79,3.79,0,0,0-2.73-1,3.75,3.75,0,0,0-2.89,6.3A3.66,3.66,0,0,0,63.5,43a3.76,3.76,0,0,0,2.72-1,3.89,3.89,0,0,0,0-5.38ZM65,40.85a2.09,2.09,0,0,1-3,0l0,0h0a2.21,2.21,0,0,1-.61-1.56,2.06,2.06,0,0,1,3.54-1.57,2.11,2.11,0,0,1,.63,1.51A2.37,2.37,0,0,1,65,40.8Zm4.45,2h1.64V39.44l2.45,3.42h2.07L72.72,39l2.68-3.37h-2L71,38.76V35.62H69.47Z"/></g></g></g></g></g></svg>