<svg width="136" height="75" viewBox="0 0 136 75" fill="none" xmlns="http://www.w3.org/2000/svg">
<path fill-rule="evenodd" clip-rule="evenodd" d="M117.194 47.6912V47.146L116.919 46.6008L116.094 46.3283L115.545 46.0557L115.27 45.7831L114.995 45.5105L114.72 44.9654V44.6928V44.1476V43.6025L115.27 43.0573L115.82 42.5121L116.369 41.967L116.644 41.6944L117.194 41.1492L118.018 40.3315V40.0589V39.2412L118.293 38.696L118.843 38.4234L119.667 37.3331H120.492L121.042 37.0605L121.591 35.9702L122.416 34.8799L122.691 33.7896L123.24 33.2444V32.6992L123.79 33.2444L124.615 34.0621L125.439 34.8799L125.714 35.1525V37.0605L125.989 38.1508L126.264 39.5137L125.989 40.3315L126.264 41.4218L127.363 43.6025V44.4202L127.638 46.6008L127.913 48.7815H130.661L131.486 48.5089L132.86 48.2363L133.684 47.9637L134.509 47.6912L135.333 47.146V46.6008V46.3283L135.058 45.2379H134.509H133.135H132.585L132.035 44.9654L131.486 44.4202L130.936 43.875L130.661 43.3299V41.6944L130.386 40.6041L129.836 39.2412V38.9686L129.287 38.4234L128.737 37.3331L129.012 35.6976V34.6073L128.187 32.9718L127.363 31.6089L126.813 29.7008V29.4283L127.913 29.7008V29.1557L127.363 25.6121L128.187 23.4315L127.913 21.796V20.9783L127.363 18.525L126.813 15.2541L126.264 11.7105L125.989 10.8928V10.075L126.264 9.52989L126.538 9.25731V8.43957V8.16699L126.813 7.34924L127.363 5.71376V3.8057L127.088 2.4428L126.538 1.62505L125.989 1.07989L122.416 0.807312L121.042 1.89763L120.767 2.71538L120.492 4.35086L120.767 5.71376L121.316 6.25892V7.07666L121.042 8.43957L118.568 10.6202L118.018 11.7105L117.744 13.6186L117.194 16.617L116.919 17.9799L116.369 18.525V19.8879L116.644 20.9783V23.7041V25.6121L116.369 26.1573L115.545 27.2476L114.995 27.5202L114.171 27.7928V28.0654V28.3379H114.995H115.27L114.445 28.6105H114.171L114.445 29.9734L115.27 30.5186L116.094 30.7912L116.919 30.5186L117.744 29.1557L118.568 26.4299V25.6121V25.067H119.118V27.2476L119.667 30.7912L119.118 31.8815L118.568 33.7896L116.644 35.6976L115.545 37.0605L114.445 37.6057L113.896 38.9686L112.796 40.8766L111.422 42.7847L110.323 44.4202L110.048 45.2379L110.598 46.3283L111.697 46.6008L112.796 47.4186L113.346 47.6912V47.9637H113.896L114.171 48.2363H116.919L117.194 47.6912Z" fill="#B0BFD5"/>
<path fill-rule="evenodd" clip-rule="evenodd" d="M117.193 49.3569L115.581 49.6447L113.658 49.9324L111.892 50.0763L110.412 50.2201L109.238 50.364L108.051 50.5078L105.99 50.7956L105.127 50.9394L103.403 51.2271L101.678 51.5149L100.741 51.8026L99.854 52.0903L99.0175 52.378L98.6182 52.5219L97.8573 52.8096L97.5498 52.9364C97.0582 53.139 96.5467 53.2894 96.0236 53.3851L93.6633 53.8167L92.7205 54.0681C92.668 54.0821 92.6569 54.1516 92.7024 54.1813C92.7453 54.2092 92.7385 54.274 92.6907 54.2924L92.4067 54.4018C92.181 54.4888 92.2433 54.8237 92.4852 54.8237H92.8632C92.8805 54.8237 92.8977 54.8272 92.9136 54.8341C93.0217 54.8806 93.0147 55.0361 92.9029 55.0728L91.5253 55.5244C91.4876 55.5368 91.4511 55.5524 91.4161 55.5712L90.7662 55.9202C90.5208 56.0519 90.261 56.155 89.9921 56.2275L88.4061 56.6547C88.3144 56.6794 88.2393 56.7454 88.2031 56.8332C88.1648 56.9261 88.0832 56.9943 87.985 57.0155L86.8076 57.2693L89.3826 56.9816L93.1507 56.55L96.8055 56.1185L97.9985 55.9746L102.272 54.9676L105.221 54.3921L108.717 53.6728L110.054 53.2412L112.902 52.6658L119.21 51.5149L120.928 51.0833L125.821 49.9324L129.732 48.9931C130.318 48.8525 130.918 48.7815 131.52 48.7815H133.021C133.158 48.7815 133.293 48.8116 133.416 48.8698C133.495 48.9066 133.578 48.9324 133.664 48.9462L134.067 49.0111C134.306 49.0498 134.542 49.1111 134.77 49.1943L134.821 49.2131L135.15 49.3224C135.215 49.344 135.264 49.3965 135.283 49.4624C135.311 49.5654 135.256 49.6731 135.156 49.7101L134.553 49.9324L134.163 50.0763L132.917 50.453C132.481 50.5848 132.028 50.6517 131.573 50.6517H129.856H129.169L128.017 50.7956L126.361 51.0833L124.655 51.371L123.286 51.6587L120.303 52.5219L117.864 53.0974L114.383 53.8167L113.867 53.9605L111.834 54.2482L108.667 54.8237L105.984 55.6869L103.844 56.2623L98.7549 57.1255L94.0114 57.8448L88.5982 58.8518C88.5278 58.8691 88.5426 58.9732 88.6151 58.9702L90.2516 58.9008C90.3972 58.8946 90.428 59.1033 90.2869 59.1396L82.5484 60.7704C81.7955 60.929 81.0714 61.2021 80.4012 61.5801C79.7193 61.9648 78.9815 62.2408 78.2145 62.3981L75.1644 63.0238L73.4841 63.4554L66.5226 64.7502L57.5785 66.4765L47.7344 68.3467L44.8041 68.7783L43.1135 69.1808C43.04 69.1984 42.9847 69.2592 42.9742 69.3341L42.9663 69.3909C42.9578 69.4516 42.9965 69.5089 43.056 69.5237C43.1775 69.554 43.1769 69.7268 43.0553 69.7564L41.7533 70.0731C41.3633 70.1679 40.9978 70.3441 40.6807 70.5901L40.6055 70.6485C39.9486 71.2161 39.1678 71.6218 38.3259 71.8334L35.5976 72.5187L31.4023 73.238L26.9639 73.6696L23.0541 73.9573L4.74094 74.1004C4.67694 74.1009 4.613 74.0966 4.54967 74.0874L1.56008 73.655C1.28008 73.6145 1.21613 73.239 1.46694 73.1081C1.48467 73.0988 1.50331 73.0914 1.52255 73.086L4.54859 72.231L9.45534 71.5117L13.3903 71.224L15.5239 70.7924C16.1905 70.5894 16.1679 69.638 15.4924 69.467L14.2676 69.157C13.9102 69.0665 13.829 68.5953 14.1356 68.3905C14.1788 68.3615 14.227 68.3408 14.2778 68.3293L18.6346 67.3397L25.3493 65.7572L28.2105 65.0836C28.2944 65.0638 28.3233 64.9591 28.2614 64.8991C28.1974 64.8371 28.2307 64.7287 28.3185 64.7134L32.2303 64.0309L36.4322 63.4554L44.6145 62.0168L49.9465 61.0793C50.2099 61.033 50.4695 60.9668 50.7229 60.8812L51.1562 60.735C51.1818 60.7264 51.2064 60.7154 51.2299 60.7022L51.626 60.479C51.8324 60.3627 51.7857 60.053 51.5543 60.0027L51.0533 59.9506C50.9153 59.9363 50.9094 59.7375 51.0463 59.715C51.6286 59.6193 52.2177 59.5711 52.8078 59.5711H54.1223H54.856L53.5235 59.4273H52.7961L57.8665 58.708L61.6538 58.4202L64.5101 58.2776C64.5264 58.2768 64.5428 58.2773 64.559 58.2793C64.8633 58.3152 64.9143 58.7355 64.6275 58.8433L63.8386 59.1396L58.2414 60.5782L55.9189 61.0098C55.7454 61.042 55.769 61.2975 55.9454 61.2975H55.9753C55.9845 61.2975 55.9937 61.2966 56.0027 61.2949L62.0817 60.1466L71.573 58.5694C72.7465 58.3744 73.9021 58.0839 75.0284 57.7009L78.116 56.9454C78.7956 56.7791 79.4397 56.4916 80.0174 56.0967L80.5087 55.7609C80.5806 55.7117 80.6583 55.6717 80.7401 55.6417L82.3713 55.0438C82.4603 55.0111 82.4771 54.8926 82.4008 54.8365C82.3181 54.7758 82.346 54.646 82.4463 54.6245L85.5542 53.9605L89.9463 52.9535L94.2909 51.9465L98.4692 51.0833L101.015 50.6517L105.529 50.0763L107.733 49.9324L111.699 49.5008L113.179 49.3569L113.519 49.3022C113.888 49.2429 114.261 49.2131 114.634 49.2131L115.789 49.0692H117.162C117.337 49.0692 117.363 49.3202 117.193 49.3569Z" fill="#B0BFD5"/>
<path fill-rule="evenodd" clip-rule="evenodd" d="M117.193 49.3569L115.581 49.6447L113.658 49.9324L111.892 50.0763L110.412 50.2201L109.238 50.364L108.051 50.5078L105.99 50.7956L105.127 50.9394L103.403 51.2271L101.678 51.5149L100.741 51.8026L99.854 52.0903L99.0175 52.378L98.6182 52.5219L97.8573 52.8096L97.5498 52.9364C97.0582 53.139 96.5467 53.2894 96.0236 53.3851L93.6633 53.8167L92.7205 54.0681C92.668 54.0821 92.6569 54.1516 92.7024 54.1813C92.7453 54.2092 92.7385 54.274 92.6907 54.2924L92.4067 54.4018C92.181 54.4888 92.2433 54.8237 92.4852 54.8237H92.8632C92.8805 54.8237 92.8977 54.8272 92.9136 54.8341C93.0217 54.8806 93.0147 55.0361 92.9029 55.0728L91.5253 55.5244C91.4876 55.5368 91.4511 55.5524 91.4161 55.5712L90.7662 55.9202C90.5208 56.0519 90.261 56.155 89.9921 56.2275L88.4061 56.6547C88.3144 56.6794 88.2393 56.7454 88.2031 56.8332C88.1648 56.9261 88.0832 56.9943 87.985 57.0155L86.8076 57.2693L89.3826 56.9816L93.1507 56.55L96.8055 56.1185L97.9985 55.9746L102.272 54.9676L105.221 54.3921L108.717 53.6728L110.054 53.2412L112.902 52.6658L119.21 51.5149L120.928 51.0833L125.821 49.9324L129.732 48.9931C130.318 48.8525 130.918 48.7815 131.52 48.7815H133.021C133.158 48.7815 133.293 48.8116 133.416 48.8698C133.495 48.9066 133.578 48.9324 133.664 48.9462L134.067 49.0111C134.306 49.0498 134.542 49.1111 134.77 49.1943L134.821 49.2131L135.15 49.3224C135.215 49.344 135.264 49.3965 135.283 49.4624C135.311 49.5654 135.256 49.6731 135.156 49.7101L134.553 49.9324L134.163 50.0763L132.917 50.453C132.481 50.5848 132.028 50.6517 131.573 50.6517H129.856H129.169L128.017 50.7956L126.361 51.0833L124.655 51.371L123.286 51.6587L120.303 52.5219L117.864 53.0974L114.383 53.8167L113.867 53.9605L111.834 54.2482L108.667 54.8237L105.984 55.6869L103.844 56.2623L98.7549 57.1255L94.0114 57.8448L88.5982 58.8518C88.5278 58.8691 88.5426 58.9732 88.6151 58.9702L90.2516 58.9008C90.3972 58.8946 90.428 59.1033 90.2869 59.1396L82.5484 60.7704C81.7955 60.929 81.0714 61.2021 80.4012 61.5801C79.7193 61.9648 78.9815 62.2408 78.2145 62.3981L75.1644 63.0238L73.4841 63.4554L66.5226 64.7502L57.5785 66.4765L47.7344 68.3467L44.8041 68.7783L43.1135 69.1808C43.04 69.1984 42.9847 69.2592 42.9742 69.3341L42.9663 69.3909C42.9578 69.4516 42.9965 69.5089 43.056 69.5237C43.1775 69.554 43.1769 69.7268 43.0553 69.7564L41.7533 70.0731C41.3633 70.1679 40.9978 70.3441 40.6807 70.5901L40.6055 70.6485C39.9486 71.2161 39.1678 71.6218 38.3259 71.8334L35.5976 72.5187L31.4023 73.238L26.9639 73.6696L23.0541 73.9573L4.74094 74.1004C4.67694 74.1009 4.613 74.0966 4.54967 74.0874L1.56008 73.655C1.28008 73.6145 1.21613 73.239 1.46694 73.1081C1.48467 73.0988 1.50331 73.0914 1.52255 73.086L4.54859 72.231L9.45534 71.5117L13.3903 71.224L15.5239 70.7924C16.1905 70.5894 16.1679 69.638 15.4924 69.467L14.2676 69.157C13.9102 69.0665 13.829 68.5953 14.1356 68.3905C14.1788 68.3615 14.227 68.3408 14.2778 68.3293L18.6346 67.3397L25.3493 65.7572L28.2105 65.0836C28.2944 65.0638 28.3233 64.9591 28.2614 64.8991C28.1974 64.8371 28.2307 64.7287 28.3185 64.7134L32.2303 64.0309L36.4322 63.4554L44.6145 62.0168L49.9465 61.0793C50.2099 61.033 50.4695 60.9668 50.7229 60.8812L51.1562 60.735C51.1818 60.7264 51.2064 60.7154 51.2299 60.7022L51.626 60.479C51.8324 60.3627 51.7857 60.053 51.5543 60.0027L51.0533 59.9506C50.9153 59.9363 50.9094 59.7375 51.0463 59.715C51.6286 59.6193 52.2177 59.5711 52.8078 59.5711H54.1223H54.856L53.5235 59.4273H52.7961L57.8665 58.708L61.6538 58.4202L64.5101 58.2776C64.5264 58.2768 64.5428 58.2773 64.559 58.2793C64.8633 58.3152 64.9143 58.7355 64.6275 58.8433L63.8386 59.1396L58.2414 60.5782L55.9189 61.0098C55.7454 61.042 55.769 61.2975 55.9454 61.2975H55.9753C55.9845 61.2975 55.9937 61.2966 56.0027 61.2949L62.0817 60.1466L71.573 58.5694C72.7465 58.3744 73.9021 58.0839 75.0284 57.7009L78.116 56.9454C78.7956 56.7791 79.4397 56.4916 80.0174 56.0967L80.5087 55.7609C80.5806 55.7117 80.6583 55.6717 80.7401 55.6417L82.3713 55.0438C82.4603 55.0111 82.4771 54.8926 82.4008 54.8365C82.3181 54.7758 82.346 54.646 82.4463 54.6245L85.5542 53.9605L89.9463 52.9535L94.2909 51.9465L98.4692 51.0833L101.015 50.6517L105.529 50.0763L107.733 49.9324L111.699 49.5008L113.179 49.3569L113.519 49.3022C113.888 49.2429 114.261 49.2131 114.634 49.2131L115.789 49.0692H117.162C117.337 49.0692 117.363 49.3202 117.193 49.3569Z" fill="url(#paint0_linear)"/>
<defs>
<linearGradient id="paint0_linear" x1="-26" y1="82.0969" x2="160.656" y2="38.0757" gradientUnits="userSpaceOnUse">
<stop stop-color="white"/>
<stop offset="1" stop-color="white" stop-opacity="0"/>
</linearGradient>
</defs>
</svg>
