<svg xmlns="http://www.w3.org/2000/svg" width="601" height="810" viewBox="0 0 601 810">
  <defs>
    <linearGradient id="linearGradient-1" x1="50%" x2="50%" y1="0%" y2="100%">
      <stop offset="0%" stop-color="#FFF"/>
      <stop offset="100%" stop-color="#DBE1F4"/>
    </linearGradient>
    <radialGradient id="radialGradient-2" cx="49.58%" cy="-16%" r="60.26%" fx="49.58%" fy="-16%" gradientTransform="matrix(0 .9961 -1 0 .34 -.65)">
      <stop offset="0%" stop-color="#FFF"/>
      <stop offset="70.1%" stop-color="#FFF" stop-opacity=".38"/>
      <stop offset="100%" stop-color="#FFF" stop-opacity="0"/>
    </radialGradient>
    <radialGradient id="radialGradient-3" cx="32.56%" cy="60.66%" r="133.36%" fx="32.56%" fy="60.66%">
      <stop offset="0%" stop-color="#FFF"/>
      <stop offset="100%" stop-color="#FFF" stop-opacity="0"/>
    </radialGradient>
    <radialGradient id="radialGradient-4" cx="49.92%" cy="-84%" r="106.49%" fx="49.92%" fy="-84%">
      <stop offset="0%" stop-color="#FFF"/>
      <stop offset="100%" stop-color="#FFF" stop-opacity="0"/>
    </radialGradient>
    <radialGradient id="radialGradient-5" cx="141.94%" cy="50.43%" r="91.99%" fx="141.94%" fy="50.43%" gradientTransform="rotate(180 1.42 .5)">
      <stop offset="0%" stop-color="#FFF"/>
      <stop offset="100%" stop-color="#FFF" stop-opacity="0"/>
    </radialGradient>
    <radialGradient id="radialGradient-6" cx="55.87%" cy="84.7%" r="107.39%" fx="55.87%" fy="84.7%" gradientTransform="scale(1 .99404) rotate(78.21 .56 .85)">
      <stop offset="0%" stop-color="#647BB7"/>
      <stop offset="100%" stop-color="#FFF" stop-opacity="0"/>
    </radialGradient>
  </defs>
  <path id="yellow-planet-line" fill="url(#linearGradient-1)" d="M323 1h.7v200.24h-.7z"/>
  <g id="yellow-planet" transform="translate(44 200)">
    <path id="Path" fill="#FFF0C9" d="M278.96 559.97c153.87 0 278.6-125.22 278.6-279.7C557.56 125.8 432.83.58 278.96.58S.35 125.8.35 280.28c0 154.47 124.74 279.69 278.61 279.69z"/>
    <path id="Path" fill="url(#radialGradient-2)" d="M278.61 560.39c153.87 0 278.6-125.22 278.6-279.7C557.21 126.22 432.48 1 278.61 1S0 126.22 0 280.7c0 154.47 124.74 279.69 278.61 279.69z"/>
  </g>
  <path id="green-planet-line" fill="url(#linearGradient-1)" d="M463.7 1h.7v216.51h-.7z" transform="matrix(-1 0 0 1 928.1 0)"/>
  <g id="green-planet" transform="translate(436 217)">
    <path id="Path" fill="#72BAB6" d="M26.63 54.25a26.63 26.63 0 1 0 0-53.26 26.63 26.63 0 0 0 0 53.26z"/>
    <path id="Path" fill="url(#radialGradient-3)" d="M26.63 54.25a26.63 26.63 0 1 0 0-53.26 26.63 26.63 0 0 0 0 53.26z"/>
  </g>
  <path id="gray-planet-line" fill="url(#linearGradient-1)" d="M338 1h1v716.25h-1z"/>
  <g id="gray-planet" transform="translate(320 716)">
    <path id="Path" fill="#BDC1C4" d="M18.65 38.27a18.64 18.64 0 1 0 0-37.28 18.64 18.64 0 0 0 0 37.28z"/>
    <path id="Path" fill="url(#radialGradient-4)" d="M18.65 38.27a18.64 18.64 0 1 0 0-37.28 18.64 18.64 0 0 0 0 37.28z"/>
  </g>
  <path id="red-planet-line" fill="url(#linearGradient-1)" d="M54 1h1v501.23h-1z"/>
  <g id="red-planet" transform="translate(0 501)">
    <path id="Path" fill="#E8C7DB" d="M54.6 107.34A53.27 53.27 0 1 0 54.58.8a53.27 53.27 0 0 0 .02 106.54z"/>
    <path id="Path" fill="url(#radialGradient-5)" d="M54.27 107.55a53.27 53.27 0 1 0-.02-106.54 53.27 53.27 0 0 0 .02 106.54z"/>
  </g>
  <path id="blue-planet-line" fill="url(#linearGradient-1)" d="M485.73.98h1v662.67h-1z"/>
  <g id="blue-planet" transform="translate(413 662)">
    <path id="Path" fill="#9ABEE9" d="M72.82 147.15a72.73 72.73 0 0 0 72.72-72.75 72.73 72.73 0 1 0-145.45 0 72.73 72.73 0 0 0 72.73 72.75z"/>
    <path id="Path" fill="url(#radialGradient-6)" d="M72.82 147.15a72.73 72.73 0 0 0 72.72-72.75 72.73 72.73 0 1 0-145.45 0 72.73 72.73 0 0 0 72.73 72.75z"/>
  </g>
</svg>
