<svg width="32" height="32" viewBox="0 0 32 32" fill="none" xmlns="http://www.w3.org/2000/svg">
<path fill-rule="evenodd" clip-rule="evenodd" d="M15.7425 22.9453H17.1772C17.1772 22.9453 17.6102 22.9003 17.8314 22.6742C18.0357 22.4658 18.0289 22.0755 18.0289 22.0755C18.0289 22.0755 18.0009 20.2483 18.8941 19.9787C19.7746 19.7132 20.9059 21.7448 22.1041 22.5261C23.0109 23.1175 23.6998 22.988 23.6998 22.988L26.9048 22.9453C26.9048 22.9453 28.581 22.8472 27.7861 21.596C27.7208 21.4938 27.3225 20.6699 25.4031 18.9778C23.393 17.2068 23.6625 17.4932 26.0836 14.4292C27.5573 12.5641 28.1471 11.4248 27.9623 10.9372C27.7869 10.4721 26.7031 10.5952 26.7031 10.5952L23.0939 10.6162C23.0939 10.6162 22.8261 10.5816 22.6278 10.6942C22.4346 10.8044 22.31 11.0619 22.31 11.0619C22.31 11.0619 21.738 12.5054 20.9771 13.7333C19.3703 16.3241 18.7271 16.4609 18.4644 16.3C17.8535 15.925 18.006 14.7945 18.006 13.9907C18.006 11.4795 18.4077 10.4327 17.2255 10.1615C16.8332 10.0722 16.5442 10.0127 15.5408 10.003C14.2536 9.99017 13.1638 10.0063 12.5469 10.2935C12.1359 10.4842 11.819 10.9098 12.0122 10.934C12.2503 10.9646 12.791 11.0724 13.0774 11.4425C13.4469 11.9204 13.4342 12.993 13.4342 12.993C13.4342 12.993 13.6469 15.9484 12.9376 16.3161C12.4511 16.5671 11.7842 16.0538 10.3512 13.7027C9.61738 12.499 9.06316 11.1681 9.06316 11.1681C9.06316 11.1681 8.95639 10.9195 8.76572 10.7859C8.53437 10.625 8.2115 10.5735 8.2115 10.5735L4.78199 10.5952C4.78199 10.5952 4.26761 10.6089 4.07863 10.8213C3.91 11.0104 4.06508 11.4015 4.06508 11.4015C4.06508 11.4015 6.7497 17.3653 9.7894 20.3706C12.5774 23.1264 15.7425 22.9453 15.7425 22.9453Z" fill="#307FE2"/>
</svg>
